<svg width="134" height="150" viewBox="0 0 134 150" fill="none" xmlns="http://www.w3.org/2000/svg">
    <g filter="url(#filter0_d)">
        <path d="M101.137 0H14.3651C8.33545 0 4.81851 3.42206 4.81851 9.23614V17.4435L4.81955 17.6226C4.88851 23.5079 8.3665 26.8901 14.3651 26.8901L64.2669 26.89L29.9785 56.6559C25.4505 60.4963 24.7815 65.0203 28.0329 69.7391L30.3799 72.6955C33.4526 76.9525 37.1861 77.9247 42.9145 76.3376C46.9875 74.8726 51.3556 74.24 55.6241 74.24C71.3421 74.24 82.8702 83.6234 82.8702 97.2019C82.8702 103.789 80.0142 110.081 74.7195 114.713C68.8731 119.827 60.3994 122.689 49.8818 122.689C38.7364 122.689 30.8435 120.88 20.6234 115.346C15.4176 112.556 11.1231 113.263 7.72466 117.58L2.51865 124.235C-1.27291 129.09 -0.800129 134.002 4.04888 137.34C16.8521 145.575 33.6916 150 52.2213 150C72.1389 150 88.3755 144.651 99.6129 134.88C110.29 125.597 116 112.658 116 98.0437C116 86.1387 111.854 76.0838 104.301 68.5549C97.3206 61.596 87.661 57.0778 76.9183 55.5592L76.6328 55.4956C74.3384 54.9972 71.7861 54.7543 68.9003 54.7198L68.6782 54.7175L105.088 23.6881C108.809 20.4395 110.47 17.0013 110.47 12.3928V9.23614C110.47 3.45083 106.983 0 101.137 0Z" fill="url(#paint0_linear)"/>
    </g>
    <defs>
        <filter id="filter0_d" x="-6" y="-6" width="140" height="174" filterUnits="userSpaceOnUse" color-interpolation-filters="sRGB">
            <feFlood flood-opacity="0" result="BackgroundImageFix"/>
            <feColorMatrix in="SourceAlpha" type="matrix" values="0 0 0 0 0 0 0 0 0 0 0 0 0 0 0 0 0 0 127 0"/>
            <feOffset dx="6" dy="6"/>
            <feGaussianBlur stdDeviation="6"/>
            <feColorMatrix type="matrix" values="0 0 0 0 0 0 0 0 0 0 0 0 0 0 0 0 0 0 0.5 0"/>
            <feBlend mode="normal" in2="BackgroundImageFix" result="effect1_dropShadow"/>
            <feBlend mode="normal" in="SourceGraphic" in2="effect1_dropShadow" result="shape"/>
        </filter>
        <linearGradient id="paint0_linear" x1="99.7773" y1="-56.8455" x2="-8.23459" y2="39.7674" gradientUnits="userSpaceOnUse">
            <stop stop-color="#9CAFFE"/>
            <stop offset="1" stop-color="#8C84FA"/>
        </linearGradient>
    </defs>
</svg>
