<svg width="104" height="104" viewBox="0 0 104 104" fill="none" xmlns="http://www.w3.org/2000/svg">
    <g filter="url(#filter0_d)">
        <circle cx="42" cy="42" r="32" fill="#151530"/>
    </g>
    <path fill-rule="evenodd" clip-rule="evenodd" d="M47.0432 32.8898L42.0016 37.9277L36.96 32.8859C36.237 32.1328 35.1633 31.8298 34.1533 32.0936C33.1433 32.3575 32.3549 33.147 32.0926 34.1575C31.8302 35.1679 32.1348 36.2413 32.8889 36.9632L37.9285 42.0051L32.8929 47.041C31.7975 48.1728 31.812 49.9738 32.9254 51.0878C34.0388 52.2018 35.8397 52.2172 36.972 51.1223L42.0016 46.0765L47.0393 51.1163C47.7628 51.8679 48.8358 52.17 49.8451 51.9063C50.8545 51.6427 51.6427 50.8544 51.9063 49.845C52.17 48.8357 51.8679 47.7626 51.1164 47.039L46.0867 42.0071L51.1224 36.9712C52.2177 35.8394 52.2032 34.0384 51.0898 32.9244C49.9764 31.8104 48.1755 31.795 47.0432 32.8898Z" fill="white"/>
    <defs>
        <filter id="filter0_d" x="0" y="0" width="104" height="104" filterUnits="userSpaceOnUse" color-interpolation-filters="sRGB">
            <feFlood flood-opacity="0" result="BackgroundImageFix"/>
            <feColorMatrix in="SourceAlpha" type="matrix" values="0 0 0 0 0 0 0 0 0 0 0 0 0 0 0 0 0 0 127 0"/>
            <feOffset dx="10" dy="10"/>
            <feGaussianBlur stdDeviation="10"/>
            <feColorMatrix type="matrix" values="0 0 0 0 0 0 0 0 0 0 0 0 0 0 0 0 0 0 0.5 0"/>
            <feBlend mode="normal" in2="BackgroundImageFix" result="effect1_dropShadow"/>
            <feBlend mode="normal" in="SourceGraphic" in2="effect1_dropShadow" result="shape"/>
        </filter>
    </defs>
</svg>
