<svg width="578" height="579" viewBox="0 0 578 579" fill="none" xmlns="http://www.w3.org/2000/svg">
    <g clip-path="url(#clip0)">
        <g filter="url(#filter0_d)">
            <path d="M203.915 65.9077H352.321C371.219 65.9077 378.072 67.8737 384.98 71.5653C391.889 75.2569 397.311 80.6742 401.006 87.5769C404.701 94.4797 406.668 101.326 406.668 120.208V500.77C406.668 519.652 404.701 526.498 401.006 533.401C397.311 540.304 391.889 545.721 384.98 549.413C378.072 553.104 371.219 555.07 352.321 555.07H203.915C185.017 555.07 178.164 553.104 171.256 549.413C164.347 545.721 158.925 540.304 155.23 533.401C151.535 526.498 149.568 519.652 149.568 500.77V120.208C149.568 101.326 151.535 94.4797 155.23 87.5769C158.925 80.6742 164.347 75.2569 171.256 71.5653C178.164 67.8737 185.017 65.9077 203.915 65.9077Z" fill="black"/>
        </g>
        <path fill-rule="evenodd" clip-rule="evenodd" d="M353.094 74.7903C368.894 74.8338 374.862 76.2304 380.788 79.3971C386.125 82.2487 390.313 86.4334 393.167 91.7655C396.388 97.7822 397.779 103.842 397.779 120.208V500.77C397.779 517.136 396.388 523.196 393.167 529.213C390.313 534.545 386.125 538.729 380.788 541.581C374.766 544.799 368.702 546.189 352.321 546.189H203.915C187.534 546.189 181.47 544.799 175.448 541.581C170.111 538.729 165.923 534.545 163.069 529.213C159.905 523.302 158.507 517.35 158.458 501.57L158.458 119.436C158.501 103.649 159.899 97.6867 163.069 91.7655C165.923 86.4334 170.111 82.2487 175.448 79.3971C181.364 76.2358 187.32 74.8397 203.114 74.7905L353.094 74.7903Z" fill="#F7F7F7" stroke="black" stroke-width="13"/>
        <path fill-rule="evenodd" clip-rule="evenodd" d="M352.321 67.2742C370.832 67.2742 377.563 69.1515 384.336 72.7702C391.002 76.3326 396.235 81.5603 399.8 88.2214C403.422 94.9878 405.301 101.714 405.301 120.208V500.77C405.301 519.265 403.422 525.99 399.8 532.757C396.235 539.418 391.002 544.646 384.336 548.208C377.563 551.827 370.832 553.704 352.321 553.704H203.915C185.404 553.704 178.673 551.827 171.901 548.208C165.234 544.646 160.002 539.418 156.436 532.757C152.868 526.091 150.991 519.465 150.937 501.584L150.937 119.388C150.992 101.513 152.868 94.8868 156.436 88.2214C160.002 81.5603 165.234 76.3326 171.901 72.7702C178.572 69.2053 185.204 67.3303 203.101 67.2754L352.321 67.2742Z" stroke="#98A3FD" stroke-width="2"/>
        <path d="M204.27 122.612C204.27 116.953 199.678 112.365 194.013 112.365C188.349 112.365 183.757 116.953 183.757 122.612C183.757 128.272 188.349 132.86 194.013 132.86C199.678 132.86 204.27 128.272 204.27 122.612Z" fill="#CECECE"/>
        <path d="M344.445 112.365H225.467C219.803 112.365 215.21 116.953 215.21 122.612C215.21 128.272 219.803 132.86 225.467 132.86H344.445C350.109 132.86 354.701 128.272 354.701 122.612C354.701 116.953 350.109 112.365 344.445 112.365Z" fill="#CECECE"/>
        <path d="M362.223 138.326H225.467C219.803 138.326 215.21 142.914 215.21 148.574C215.21 154.233 219.803 158.821 225.467 158.821H362.223C367.887 158.821 372.479 154.233 372.479 148.574C372.479 142.914 367.887 138.326 362.223 138.326Z" fill="#CECECE"/>
        <path d="M344.445 164.287H225.467C219.803 164.287 215.21 168.875 215.21 174.535C215.21 180.194 219.803 184.782 225.467 184.782H344.445C350.109 184.782 354.701 180.194 354.701 174.535C354.701 168.875 350.109 164.287 344.445 164.287Z" fill="#CECECE"/>
        <path d="M204.27 447.81C204.27 442.15 199.678 437.562 194.013 437.562C188.349 437.562 183.757 442.15 183.757 447.81C183.757 453.47 188.349 458.058 194.013 458.058C199.678 458.058 204.27 453.47 204.27 447.81Z" fill="#CECECE"/>
        <path d="M344.445 437.562H225.467C219.803 437.562 215.21 442.15 215.21 447.81C215.21 453.47 219.803 458.058 225.467 458.058H344.445C350.109 458.058 354.701 453.47 354.701 447.81C354.701 442.15 350.109 437.562 344.445 437.562Z" fill="#CECECE"/>
        <path d="M362.223 463.523H225.467C219.803 463.523 215.21 468.111 215.21 473.771C215.21 479.431 219.803 484.019 225.467 484.019H362.223C367.887 484.019 372.479 479.431 372.479 473.771C372.479 468.111 367.887 463.523 362.223 463.523Z" fill="#CECECE"/>
        <path d="M344.445 489.484H225.467C219.803 489.484 215.21 494.072 215.21 499.732C215.21 505.392 219.803 509.98 225.467 509.98H344.445C350.109 509.98 354.701 505.392 354.701 499.732C354.701 494.072 350.109 489.484 344.445 489.484Z" fill="#CECECE"/>
        <path d="M204.27 285.211C204.27 279.551 199.678 274.963 194.013 274.963C188.349 274.963 183.757 279.551 183.757 285.211C183.757 290.871 188.349 295.459 194.013 295.459C199.678 295.459 204.27 290.871 204.27 285.211Z" fill="#CECECE"/>
        <path d="M362.223 274.963H225.467C219.803 274.963 215.21 279.551 215.21 285.211C215.21 290.871 219.803 295.459 225.467 295.459H362.223C367.887 295.459 372.479 290.871 372.479 285.211C372.479 279.551 367.887 274.963 362.223 274.963Z" fill="#CECECE"/>
        <path d="M344.445 300.924H225.467C219.803 300.924 215.21 305.512 215.21 311.172C215.21 316.832 219.803 321.42 225.467 321.42H344.445C350.109 321.42 354.701 316.832 354.701 311.172C354.701 305.512 350.109 300.924 344.445 300.924Z" fill="#CECECE"/>
        <path d="M362.223 326.885H225.467C219.803 326.885 215.21 331.474 215.21 337.133C215.21 342.793 219.803 347.381 225.467 347.381H362.223C367.887 347.381 372.479 342.793 372.479 337.133C372.479 331.474 367.887 326.885 362.223 326.885Z" fill="#CECECE"/>
        <path d="M362.223 206.645H225.467C219.803 206.645 215.21 211.233 215.21 216.892C215.21 222.552 219.803 227.14 225.467 227.14H362.223C367.887 227.14 372.479 222.552 372.479 216.892C372.479 211.233 367.887 206.645 362.223 206.645Z" fill="#CECECE"/>
        <path d="M344.445 232.605H225.467C219.803 232.605 215.21 237.194 215.21 242.853C215.21 248.513 219.803 253.101 225.467 253.101H344.445C350.109 253.101 354.701 248.513 354.701 242.853C354.701 237.194 350.109 232.605 344.445 232.605Z" fill="#CECECE"/>
        <path d="M204.27 216.892C204.27 211.233 199.678 206.645 194.013 206.645C188.349 206.645 183.757 211.233 183.757 216.892C183.757 222.552 188.349 227.14 194.013 227.14C199.678 227.14 204.27 222.552 204.27 216.892Z" fill="#CECECE"/>
        <path d="M344.445 369.243H225.467C219.803 369.243 215.21 373.831 215.21 379.491C215.21 385.151 219.803 389.739 225.467 389.739H344.445C350.109 389.739 354.701 385.151 354.701 379.491C354.701 373.831 350.109 369.243 344.445 369.243Z" fill="#CECECE"/>
        <path d="M362.223 395.204H225.467C219.803 395.204 215.21 399.792 215.21 405.452C215.21 411.112 219.803 415.7 225.467 415.7H362.223C367.887 415.7 372.479 411.112 372.479 405.452C372.479 399.792 367.887 395.204 362.223 395.204Z" fill="#CECECE"/>
        <path d="M204.27 379.491C204.27 373.831 199.678 369.243 194.013 369.243C188.349 369.243 183.757 373.831 183.757 379.491C183.757 385.151 188.349 389.739 194.013 389.739C199.678 389.739 204.27 385.151 204.27 379.491Z" fill="#CECECE"/>
        <g filter="url(#filter1_d)">
            <path d="M309.709 11.2527C292.262 11.2527 278.118 25.384 278.118 42.816V91.5956C278.118 109.028 292.262 123.159 309.709 123.159H326.94V151.517L355.323 123.159H425.541C442.813 123.159 456.848 109.309 457.127 92.1175L457.131 91.5956V42.816C457.131 25.384 442.988 11.2527 425.541 11.2527H309.709Z" fill="black"/>
        </g>
        <path d="M309.709 11.2527C292.262 11.2527 278.118 25.384 278.118 42.816V91.5956C278.118 109.028 292.262 123.159 309.709 123.159H326.94V151.517L355.323 123.159H425.541C442.813 123.159 456.848 109.309 457.127 92.1175L457.131 91.5956V42.816C457.131 25.384 442.988 11.2527 425.541 11.2527H309.709Z" fill="url(#paint0_linear)"/>
        <path d="M336.036 74.1255C335.604 74.1255 335.308 74.0055 335.148 73.7655C334.988 73.5255 334.98 73.2055 335.124 72.8055L340.74 58.2375C340.964 57.6295 341.412 57.3255 342.084 57.3255H343.788C344.444 57.3255 344.892 57.6295 345.132 58.2375L350.82 72.8055C350.964 73.2055 350.956 73.5255 350.796 73.7655C350.636 74.0055 350.34 74.1255 349.908 74.1255H348.348C347.692 74.1255 347.244 73.8215 347.004 73.2135L346.164 71.0055H339.684L338.868 73.1895C338.628 73.8135 338.188 74.1255 337.548 74.1255H336.036ZM340.428 68.0055H345.396L342.948 61.2375L340.428 68.0055ZM354.087 74.1255C353.319 74.1255 352.935 73.7415 352.935 72.9735V57.9255C352.935 57.1575 353.319 56.7735 354.087 56.7735H355.479C356.263 56.7735 356.655 57.1575 356.655 57.9255V72.9735C356.655 73.7415 356.263 74.1255 355.479 74.1255H354.087ZM365.996 74.3895C363.852 74.3895 362.132 73.7815 360.836 72.5655C359.54 71.3495 358.892 69.8295 358.892 68.0055C358.892 66.2135 359.516 64.6855 360.764 63.4215C362.012 62.1575 363.644 61.5255 365.66 61.5255C367.484 61.5255 369.012 62.0615 370.244 63.1335C371.476 64.1895 372.132 65.6695 372.212 67.5735C372.228 67.9095 372.124 68.1655 371.9 68.3415C371.692 68.5015 371.404 68.5815 371.036 68.5815H362.444C362.412 69.3495 362.748 70.0215 363.452 70.5975C364.172 71.1735 365.1 71.4615 366.236 71.4615C367.18 71.4615 368.092 71.2135 368.972 70.7175C369.628 70.3495 370.172 70.4295 370.604 70.9575L370.868 71.2935C371.396 71.9335 371.324 72.5015 370.652 72.9975C369.372 73.9255 367.82 74.3895 365.996 74.3895ZM362.54 66.5175H368.732C368.572 65.7495 368.204 65.1975 367.628 64.8615C367.068 64.5095 366.428 64.3335 365.708 64.3335C364.972 64.3335 364.308 64.5095 363.716 64.8615C363.124 65.2135 362.732 65.7655 362.54 66.5175ZM375.484 74.1255C374.716 74.1255 374.332 73.7415 374.332 72.9735V62.9415C374.332 62.1735 374.716 61.7895 375.484 61.7895H376.804C377.572 61.7895 377.956 62.1735 377.956 62.9415V64.4775C378.132 63.4695 378.54 62.7255 379.18 62.2455C379.836 61.7655 380.492 61.5255 381.148 61.5255L381.556 61.5495C382.02 61.5815 382.252 61.9095 382.252 62.5335V64.2135C382.252 64.5495 382.172 64.7895 382.012 64.9335C381.868 65.0775 381.668 65.1335 381.412 65.1015C381.124 65.0695 380.924 65.0535 380.812 65.0535C379.996 65.0535 379.332 65.3655 378.82 65.9895C378.308 66.6135 378.052 67.6455 378.052 69.0855V72.9735C378.052 73.7415 377.668 74.1255 376.9 74.1255H375.484ZM389.124 74.3895C388.564 74.3895 388.044 74.3175 387.564 74.1735C387.084 74.0295 386.628 73.8055 386.196 73.5015C385.764 73.1815 385.42 72.7255 385.164 72.1335C384.924 71.5415 384.804 70.8375 384.804 70.0215V64.5495H383.58C383.164 64.5495 382.956 64.3495 382.956 63.9495V62.3895C382.956 61.9895 383.164 61.7895 383.58 61.7895H385.092L385.5 59.2935C385.596 58.7815 385.908 58.5255 386.436 58.5255H387.612C388.172 58.5255 388.452 58.8055 388.452 59.3655V61.7895H391.236C391.636 61.7895 391.836 61.9895 391.836 62.3895V63.9495C391.836 64.3495 391.636 64.5495 391.236 64.5495H388.452V70.1415C388.452 70.9895 388.788 71.4135 389.46 71.4135C389.764 71.4135 390.012 71.3095 390.204 71.1015C390.396 70.8935 390.492 70.6215 390.492 70.2855C390.492 70.1095 390.484 69.9655 390.468 69.8535C390.42 69.4215 390.588 69.2055 390.972 69.2055H392.436C392.804 69.2055 393.028 69.3655 393.108 69.6855C393.204 70.0375 393.252 70.3495 393.252 70.6215C393.252 71.8855 392.86 72.8295 392.076 73.4535C391.308 74.0775 390.324 74.3895 389.124 74.3895ZM396.637 68.4855C396.045 68.4855 395.717 68.1975 395.653 67.6215L394.813 58.7895V58.2375C394.813 57.6295 395.117 57.3255 395.725 57.3255H398.341C398.949 57.3255 399.253 57.6295 399.253 58.2375V58.7895L398.413 67.6215C398.333 68.1975 398.013 68.4855 397.453 68.4855H396.637ZM398.653 73.7895C398.221 74.1895 397.677 74.3895 397.021 74.3895C396.365 74.3895 395.821 74.1975 395.389 73.8135C394.957 73.4135 394.741 72.9095 394.741 72.3015C394.741 71.6935 394.957 71.1895 395.389 70.7895C395.821 70.3735 396.365 70.1655 397.021 70.1655C397.661 70.1655 398.205 70.3735 398.653 70.7895C399.101 71.1895 399.325 71.6935 399.325 72.3015C399.325 72.8935 399.101 73.3895 398.653 73.7895Z" fill="white"/>
        <g filter="url(#filter2_d)">
            <path fill-rule="evenodd" clip-rule="evenodd" d="M60.6765 93.2354C35.7523 93.2354 15.5472 113.423 15.5472 138.326V208.011C15.5472 232.914 35.7523 253.101 60.6765 253.101H201.946L242.492 293.614L242.492 250.054C259.339 243.513 271.28 227.155 271.28 208.011V138.326C271.28 113.423 251.075 93.2354 226.151 93.2354H60.6765Z" fill="url(#paint1_linear)"/>
            <path d="M75.3706 183.823C73.6893 183.823 72.2506 183.477 71.0546 182.783C69.8586 182.09 69.0179 181.128 68.5326 179.897C68.3766 179.516 68.3766 179.195 68.5326 178.935C68.7059 178.658 69.0006 178.467 69.4166 178.363L70.5346 178.103C71.1413 177.947 71.6526 178.216 72.0686 178.909C72.7446 179.984 73.8366 180.521 75.3446 180.521C76.2286 180.521 76.9393 180.339 77.4766 179.975C78.0139 179.611 78.2826 179.135 78.2826 178.545C78.2826 177.609 77.5893 176.907 76.2026 176.439L73.8366 175.581C72.5366 175.165 71.4099 174.533 70.4566 173.683C69.5033 172.817 69.0179 171.742 69.0006 170.459C69.0006 168.83 69.6159 167.521 70.8466 166.533C72.0773 165.545 73.6113 165.051 75.4486 165.051C78.2739 165.051 80.2153 166.161 81.2726 168.379C81.4633 168.761 81.4806 169.09 81.3246 169.367C81.1859 169.645 80.9173 169.844 80.5186 169.965L79.4786 170.251C78.8546 170.425 78.3173 170.191 77.8666 169.549C77.3813 168.752 76.5926 168.353 75.5006 168.353C74.8246 168.353 74.2526 168.518 73.7846 168.847C73.3166 169.177 73.0826 169.627 73.0826 170.199C73.0826 171.031 73.7153 171.681 74.9806 172.149L77.3466 173.007C80.5879 174.099 82.2346 175.885 82.2866 178.363C82.2866 180.079 81.6366 181.423 80.3366 182.393C79.0366 183.347 77.3813 183.823 75.3706 183.823ZM90.1823 183.823C89.5756 183.823 89.0123 183.745 88.4923 183.589C87.9723 183.433 87.4783 183.191 87.0103 182.861C86.5423 182.515 86.1696 182.021 85.8923 181.379C85.6323 180.738 85.5023 179.975 85.5023 179.091V173.163H84.1763C83.7256 173.163 83.5003 172.947 83.5003 172.513V170.823C83.5003 170.39 83.7256 170.173 84.1763 170.173H85.8143L86.2563 167.469C86.3603 166.915 86.6983 166.637 87.2703 166.637H88.5443C89.1509 166.637 89.4543 166.941 89.4543 167.547V170.173H92.4703C92.9036 170.173 93.1203 170.39 93.1203 170.823V172.513C93.1203 172.947 92.9036 173.163 92.4703 173.163H89.4543V179.221C89.4543 180.14 89.8183 180.599 90.5463 180.599C90.8756 180.599 91.1443 180.487 91.3523 180.261C91.5603 180.036 91.6643 179.741 91.6643 179.377C91.6643 179.187 91.6556 179.031 91.6383 178.909C91.5863 178.441 91.7683 178.207 92.1843 178.207H93.7703C94.1689 178.207 94.4116 178.381 94.4983 178.727C94.6023 179.109 94.6543 179.447 94.6543 179.741C94.6543 181.111 94.2296 182.133 93.3803 182.809C92.5483 183.485 91.4823 183.823 90.1823 183.823ZM108.357 181.795C106.936 183.147 105.176 183.823 103.079 183.823C100.982 183.823 99.2224 183.147 97.8011 181.795C96.3797 180.443 95.6691 178.797 95.6691 176.855C95.6691 174.914 96.3797 173.267 97.8011 171.915C99.2224 170.563 100.982 169.887 103.079 169.887C105.176 169.887 106.936 170.563 108.357 171.915C109.778 173.267 110.489 174.914 110.489 176.855C110.489 178.797 109.778 180.443 108.357 181.795ZM100.531 179.507C101.224 180.218 102.074 180.573 103.079 180.573C104.084 180.573 104.934 180.218 105.627 179.507C106.32 178.797 106.667 177.921 106.667 176.881C106.667 175.824 106.32 174.94 105.627 174.229C104.934 173.519 104.084 173.163 103.079 173.163C102.056 173.163 101.198 173.519 100.505 174.229C99.8291 174.94 99.4911 175.824 99.4911 176.881C99.4911 177.921 99.8377 178.797 100.531 179.507ZM119.717 183.823C117.429 183.823 115.575 183.165 114.153 181.847C112.732 180.53 112.021 178.892 112.021 176.933C112.021 174.94 112.723 173.267 114.127 171.915C115.549 170.563 117.412 169.887 119.717 169.887C121.26 169.887 122.673 170.26 123.955 171.005C124.666 171.456 124.744 172.045 124.189 172.773L123.773 173.293C123.34 173.831 122.751 173.935 122.005 173.605C121.364 173.293 120.679 173.137 119.951 173.137C118.825 173.137 117.889 173.484 117.143 174.177C116.415 174.871 116.051 175.763 116.051 176.855C116.051 177.947 116.415 178.84 117.143 179.533C117.889 180.227 118.825 180.573 119.951 180.573C120.679 180.573 121.364 180.417 122.005 180.105C122.768 179.759 123.357 179.863 123.773 180.417L124.189 180.937C124.449 181.249 124.536 181.587 124.449 181.951C124.38 182.298 124.137 182.584 123.721 182.809C122.525 183.485 121.191 183.823 119.717 183.823ZM137.628 183.823C136.519 183.823 135.6 183.555 134.872 183.017C134.144 182.48 133.503 181.691 132.948 180.651L131.076 177.219V182.289C131.076 183.121 130.66 183.537 129.828 183.537H128.294C127.462 183.537 127.046 183.121 127.046 182.289V165.987C127.046 165.155 127.462 164.739 128.294 164.739H129.828C130.66 164.739 131.076 165.155 131.076 165.987V175.633L134.378 170.979C134.742 170.442 135.245 170.173 135.886 170.173H137.628C138.165 170.173 138.503 170.329 138.642 170.641C138.798 170.936 138.711 171.291 138.382 171.707L134.794 176.361L136.51 179.143C136.839 179.646 137.143 180.001 137.42 180.209C137.697 180.4 138.044 180.495 138.46 180.495C138.72 180.495 138.98 180.452 139.24 180.365C139.76 180.227 140.115 180.357 140.306 180.755L140.878 181.899C141.121 182.419 140.921 182.844 140.28 183.173C139.483 183.607 138.599 183.823 137.628 183.823ZM150.446 183.537C149.596 183.537 149.172 183.121 149.172 182.289V166.585C149.172 165.753 149.596 165.337 150.446 165.337H152.058C152.89 165.337 153.306 165.753 153.306 166.585V180.053H160.274C161.123 180.053 161.548 180.469 161.548 181.301V182.289C161.548 183.121 161.123 183.537 160.274 183.537H150.446ZM167.38 167.989C166.946 168.388 166.366 168.587 165.638 168.587C164.91 168.587 164.32 168.388 163.87 167.989C163.436 167.591 163.22 167.097 163.22 166.507C163.22 165.883 163.428 165.381 163.844 164.999C164.277 164.601 164.875 164.401 165.638 164.401C166.383 164.401 166.972 164.601 167.406 164.999C167.839 165.398 168.056 165.901 168.056 166.507C168.056 167.097 167.83 167.591 167.38 167.989ZM164.884 183.537C164.052 183.537 163.636 183.121 163.636 182.289V171.421C163.636 170.589 164.052 170.173 164.884 170.173H166.392C167.241 170.173 167.666 170.589 167.666 171.421V182.289C167.666 183.121 167.241 183.537 166.392 183.537H164.884ZM176.226 183.537C175.515 183.537 175.021 183.217 174.744 182.575L170.168 171.629C169.977 171.196 169.968 170.849 170.142 170.589C170.332 170.312 170.662 170.173 171.13 170.173H172.794C173.522 170.173 173.998 170.511 174.224 171.187L177.084 179.169L179.97 171.187C180.212 170.511 180.689 170.173 181.4 170.173H183.09C183.558 170.173 183.878 170.312 184.052 170.589C184.242 170.849 184.242 171.196 184.052 171.629L179.476 182.575C179.216 183.217 178.73 183.537 178.02 183.537H176.226ZM192.741 183.823C190.418 183.823 188.555 183.165 187.151 181.847C185.747 180.53 185.045 178.883 185.045 176.907C185.045 174.966 185.721 173.311 187.073 171.941C188.425 170.572 190.193 169.887 192.377 169.887C194.353 169.887 196.008 170.468 197.343 171.629C198.677 172.773 199.388 174.377 199.475 176.439C199.492 176.803 199.379 177.081 199.137 177.271C198.911 177.445 198.599 177.531 198.201 177.531H188.893C188.858 178.363 189.222 179.091 189.985 179.715C190.765 180.339 191.77 180.651 193.001 180.651C194.023 180.651 195.011 180.383 195.965 179.845C196.675 179.447 197.265 179.533 197.733 180.105L198.019 180.469C198.591 181.163 198.513 181.778 197.785 182.315C196.398 183.321 194.717 183.823 192.741 183.823ZM188.997 175.295H195.705C195.531 174.463 195.133 173.865 194.509 173.501C193.902 173.12 193.209 172.929 192.429 172.929C191.631 172.929 190.912 173.12 190.271 173.501C189.629 173.883 189.205 174.481 188.997 175.295ZM203.565 177.427C202.924 177.427 202.569 177.115 202.499 176.491L201.589 166.923V166.325C201.589 165.667 201.919 165.337 202.577 165.337H205.411C206.07 165.337 206.399 165.667 206.399 166.325V166.923L205.489 176.491C205.403 177.115 205.056 177.427 204.449 177.427H203.565ZM205.749 183.173C205.281 183.607 204.692 183.823 203.981 183.823C203.271 183.823 202.681 183.615 202.213 183.199C201.745 182.766 201.511 182.22 201.511 181.561C201.511 180.903 201.745 180.357 202.213 179.923C202.681 179.473 203.271 179.247 203.981 179.247C204.675 179.247 205.264 179.473 205.749 179.923C206.235 180.357 206.477 180.903 206.477 181.561C206.477 182.203 206.235 182.74 205.749 183.173Z" fill="white"/>
        </g>
        <g filter="url(#filter3_d)">
            <path d="M247.758 359.678C265.205 359.678 279.349 373.81 279.349 391.242V440.021C279.349 457.453 265.205 471.585 247.758 471.585H230.527V499.943L202.143 471.585H131.926C114.654 471.585 100.619 457.734 100.34 440.543L100.336 440.021V391.242C100.336 373.81 114.479 359.678 131.926 359.678H247.758Z" fill="black"/>
        </g>
        <path d="M247.758 359.678C265.205 359.678 279.349 373.81 279.349 391.242V440.021C279.349 457.453 265.205 471.585 247.758 471.585H230.527V499.943L202.143 471.585H131.926C114.654 471.585 100.619 457.734 100.34 440.543L100.336 440.021V391.242C100.336 373.81 114.479 359.678 131.926 359.678H247.758Z" fill="url(#paint2_linear)"/>
        <path d="M148.285 426.291C147.501 426.291 146.789 426.131 146.149 425.811C145.525 425.491 145.029 425.107 144.661 424.659C144.293 424.195 143.973 423.659 143.701 423.051C143.445 422.427 143.261 421.883 143.149 421.419C143.053 420.955 142.981 420.491 142.933 420.027H140.701V424.875C140.701 425.643 140.317 426.027 139.549 426.027H138.061C137.277 426.027 136.885 425.643 136.885 424.875V410.379C136.885 409.611 137.277 409.227 138.061 409.227H144.517C146.245 409.227 147.605 409.763 148.597 410.835C149.589 411.907 150.085 413.235 150.085 414.819C150.085 416.067 149.757 417.139 149.101 418.035C148.445 418.931 147.533 419.531 146.365 419.835C146.461 420.747 146.741 421.547 147.205 422.235C147.685 422.907 148.253 423.243 148.909 423.243C149.373 423.243 149.741 423.179 150.013 423.051C150.365 422.939 150.629 422.923 150.805 423.003C150.981 423.083 151.149 423.283 151.309 423.603L151.525 424.083C151.861 424.787 151.741 425.299 151.165 425.619C150.301 426.067 149.341 426.291 148.285 426.291ZM140.701 417.291H143.989C144.661 417.291 145.197 417.067 145.597 416.619C146.013 416.155 146.221 415.579 146.221 414.891C146.221 414.187 146.013 413.603 145.597 413.139C145.181 412.675 144.645 412.443 143.989 412.443H140.701V417.291ZM159.596 426.291C157.452 426.291 155.732 425.683 154.436 424.467C153.14 423.251 152.492 421.731 152.492 419.907C152.492 418.115 153.116 416.587 154.364 415.323C155.612 414.059 157.244 413.427 159.26 413.427C161.084 413.427 162.612 413.963 163.844 415.035C165.076 416.091 165.732 417.571 165.812 419.475C165.828 419.811 165.724 420.067 165.5 420.243C165.292 420.403 165.004 420.483 164.636 420.483H156.044C156.012 421.251 156.348 421.923 157.052 422.499C157.772 423.075 158.7 423.363 159.836 423.363C160.78 423.363 161.692 423.115 162.572 422.619C163.228 422.251 163.772 422.331 164.204 422.859L164.468 423.195C164.996 423.835 164.924 424.403 164.252 424.899C162.972 425.827 161.42 426.291 159.596 426.291ZM156.14 418.419H162.332C162.172 417.651 161.804 417.099 161.228 416.763C160.668 416.411 160.028 416.235 159.308 416.235C158.572 416.235 157.908 416.411 157.316 416.763C156.724 417.115 156.332 417.667 156.14 418.419ZM172.131 426.291C169.763 426.291 168.171 425.467 167.355 423.819C167.195 423.451 167.187 423.147 167.331 422.907C167.475 422.651 167.739 422.475 168.123 422.379L168.867 422.211C169.027 422.115 169.211 422.115 169.419 422.211C169.627 422.291 169.771 422.363 169.851 422.427C169.931 422.491 170.083 422.635 170.307 422.859C170.739 423.339 171.355 423.579 172.155 423.579C172.619 423.579 172.995 423.483 173.283 423.291C173.587 423.083 173.739 422.819 173.739 422.499C173.739 422.243 173.651 422.035 173.475 421.875C173.299 421.715 173.003 421.563 172.587 421.419L171.075 420.891C168.755 420.139 167.595 418.947 167.595 417.315C167.595 416.163 168.019 415.227 168.867 414.507C169.731 413.787 170.835 413.427 172.179 413.427C173.971 413.427 175.283 414.051 176.115 415.299C176.339 415.651 176.379 415.971 176.235 416.259C176.107 416.531 175.843 416.715 175.443 416.811L174.771 416.979C174.307 417.107 173.843 416.955 173.379 416.523C173.075 416.219 172.675 416.067 172.179 416.067C171.811 416.067 171.507 416.171 171.267 416.379C171.043 416.571 170.931 416.819 170.931 417.123C170.931 417.539 171.307 417.875 172.059 418.131L173.595 418.707C175.883 419.459 177.051 420.699 177.099 422.427C177.099 423.659 176.619 424.611 175.659 425.283C174.715 425.955 173.539 426.291 172.131 426.291ZM184.293 426.291C183.733 426.291 183.213 426.219 182.733 426.075C182.253 425.931 181.797 425.707 181.365 425.403C180.933 425.083 180.589 424.627 180.333 424.035C180.093 423.443 179.973 422.739 179.973 421.923V416.451H178.749C178.333 416.451 178.125 416.251 178.125 415.851V414.291C178.125 413.891 178.333 413.691 178.749 413.691H180.261L180.669 411.195C180.765 410.683 181.077 410.427 181.605 410.427H182.781C183.341 410.427 183.621 410.707 183.621 411.267V413.691H186.405C186.805 413.691 187.005 413.891 187.005 414.291V415.851C187.005 416.251 186.805 416.451 186.405 416.451H183.621V422.043C183.621 422.891 183.957 423.315 184.629 423.315C184.933 423.315 185.181 423.211 185.373 423.003C185.565 422.795 185.661 422.523 185.661 422.187C185.661 422.011 185.653 421.867 185.637 421.755C185.589 421.323 185.757 421.107 186.141 421.107H187.605C187.973 421.107 188.197 421.267 188.277 421.587C188.373 421.939 188.421 422.251 188.421 422.523C188.421 423.787 188.029 424.731 187.245 425.355C186.477 425.979 185.493 426.291 184.293 426.291ZM201.07 424.419C199.758 425.667 198.134 426.291 196.198 426.291C194.262 426.291 192.638 425.667 191.326 424.419C190.014 423.171 189.358 421.651 189.358 419.859C189.358 418.067 190.014 416.547 191.326 415.299C192.638 414.051 194.262 413.427 196.198 413.427C198.134 413.427 199.758 414.051 201.07 415.299C202.382 416.547 203.038 418.067 203.038 419.859C203.038 421.651 202.382 423.171 201.07 424.419ZM193.846 422.307C194.486 422.963 195.27 423.291 196.198 423.291C197.126 423.291 197.91 422.963 198.55 422.307C199.19 421.651 199.51 420.843 199.51 419.883C199.51 418.907 199.19 418.091 198.55 417.435C197.91 416.779 197.126 416.451 196.198 416.451C195.254 416.451 194.462 416.779 193.822 417.435C193.198 418.091 192.886 418.907 192.886 419.883C192.886 420.843 193.206 421.651 193.846 422.307ZM211.556 426.291C209.444 426.291 207.732 425.683 206.42 424.467C205.108 423.251 204.452 421.739 204.452 419.931C204.452 418.091 205.1 416.547 206.396 415.299C207.708 414.051 209.428 413.427 211.556 413.427C212.98 413.427 214.284 413.771 215.468 414.459C216.124 414.875 216.196 415.419 215.684 416.091L215.3 416.571C214.9 417.067 214.356 417.163 213.668 416.859C213.076 416.571 212.444 416.427 211.772 416.427C210.732 416.427 209.868 416.747 209.18 417.387C208.508 418.027 208.172 418.851 208.172 419.859C208.172 420.867 208.508 421.691 209.18 422.331C209.868 422.971 210.732 423.291 211.772 423.291C212.444 423.291 213.076 423.147 213.668 422.859C214.372 422.539 214.916 422.635 215.3 423.147L215.684 423.627C215.924 423.915 216.004 424.227 215.924 424.563C215.86 424.883 215.636 425.147 215.252 425.355C214.148 425.979 212.916 426.291 211.556 426.291ZM228.089 426.291C227.065 426.291 226.217 426.043 225.545 425.547C224.873 425.051 224.281 424.323 223.769 423.363L222.041 420.195V424.875C222.041 425.643 221.657 426.027 220.889 426.027H219.473C218.705 426.027 218.321 425.643 218.321 424.875V409.827C218.321 409.059 218.705 408.675 219.473 408.675H220.889C221.657 408.675 222.041 409.059 222.041 409.827V418.731L225.089 414.435C225.425 413.939 225.889 413.691 226.481 413.691H228.089C228.585 413.691 228.897 413.835 229.025 414.123C229.169 414.395 229.089 414.723 228.785 415.107L225.473 419.403L227.057 421.971C227.361 422.435 227.641 422.763 227.897 422.955C228.153 423.131 228.473 423.219 228.857 423.219C229.097 423.219 229.337 423.179 229.577 423.099C230.057 422.971 230.385 423.091 230.561 423.459L231.089 424.515C231.313 424.995 231.129 425.387 230.537 425.691C229.801 426.091 228.985 426.291 228.089 426.291ZM234.345 420.387C233.753 420.387 233.425 420.099 233.361 419.523L232.521 410.691V410.139C232.521 409.531 232.825 409.227 233.433 409.227H236.049C236.657 409.227 236.961 409.531 236.961 410.139V410.691L236.121 419.523C236.041 420.099 235.721 420.387 235.161 420.387H234.345ZM236.361 425.691C235.929 426.091 235.385 426.291 234.729 426.291C234.073 426.291 233.529 426.099 233.097 425.715C232.665 425.315 232.449 424.811 232.449 424.203C232.449 423.595 232.665 423.091 233.097 422.691C233.529 422.275 234.073 422.067 234.729 422.067C235.369 422.067 235.913 422.275 236.361 422.691C236.809 423.091 237.033 423.595 237.033 424.203C237.033 424.795 236.809 425.291 236.361 425.691Z" fill="white"/>
        <g filter="url(#filter4_d)">
            <path d="M495.56 208.011C520.484 208.011 540.689 228.199 540.689 253.101V322.787C540.689 347.689 520.484 367.877 495.56 367.877H395.248L354.701 408.389L354.7 367.877H330.085C305.161 367.877 284.956 347.689 284.956 322.787V253.101C284.956 228.199 305.161 208.011 330.085 208.011H495.56Z" fill="black"/>
        </g>
        <path d="M495.56 208.011C520.484 208.011 540.689 228.199 540.689 253.101V322.787C540.689 347.689 520.484 367.877 495.56 367.877H395.248L354.701 408.389L354.7 367.877H330.085C305.161 367.877 284.956 347.689 284.956 322.787V253.101C284.956 228.199 305.161 208.011 330.085 208.011H495.56Z" fill="url(#paint3_linear)"/>
        <path d="M342.376 298.396C340.695 298.396 339.256 298.049 338.06 297.356C336.864 296.662 336.023 295.7 335.538 294.47C335.382 294.088 335.382 293.768 335.538 293.508C335.711 293.23 336.006 293.04 336.422 292.936L337.54 292.676C338.147 292.52 338.658 292.788 339.074 293.482C339.75 294.556 340.842 295.094 342.35 295.094C343.234 295.094 343.945 294.912 344.482 294.548C345.019 294.184 345.288 293.707 345.288 293.118C345.288 292.182 344.595 291.48 343.208 291.012L340.842 290.154C339.542 289.738 338.415 289.105 337.462 288.256C336.509 287.389 336.023 286.314 336.006 285.032C336.006 283.402 336.621 282.094 337.852 281.106C339.083 280.118 340.617 279.624 342.454 279.624C345.279 279.624 347.221 280.733 348.278 282.952C348.469 283.333 348.486 283.662 348.33 283.94C348.191 284.217 347.923 284.416 347.524 284.538L346.484 284.824C345.86 284.997 345.323 284.763 344.872 284.122C344.387 283.324 343.598 282.926 342.506 282.926C341.83 282.926 341.258 283.09 340.79 283.42C340.322 283.749 340.088 284.2 340.088 284.772C340.088 285.604 340.721 286.254 341.986 286.722L344.352 287.58C347.593 288.672 349.24 290.457 349.292 292.936C349.292 294.652 348.642 295.995 347.342 296.966C346.042 297.919 344.387 298.396 342.376 298.396ZM353.05 298.11C352.218 298.11 351.802 297.694 351.802 296.862V280.56C351.802 279.728 352.218 279.312 353.05 279.312H354.584C355.416 279.312 355.832 279.728 355.832 280.56V286.878C356.508 285.266 357.86 284.46 359.888 284.46C361.569 284.46 362.8 285.023 363.58 286.15C364.377 287.259 364.776 288.68 364.776 290.414V296.862C364.776 297.694 364.351 298.11 363.502 298.11H361.994C361.162 298.11 360.746 297.694 360.746 296.862V290.7C360.746 289.764 360.564 289.036 360.2 288.516C359.836 287.996 359.316 287.736 358.64 287.736C357.877 287.736 357.219 288.039 356.664 288.646C356.109 289.252 355.832 290.136 355.832 291.298V296.862C355.832 297.694 355.416 298.11 354.584 298.11H353.05ZM379.653 296.368C378.232 297.72 376.473 298.396 374.375 298.396C372.278 298.396 370.519 297.72 369.097 296.368C367.676 295.016 366.965 293.369 366.965 291.428C366.965 289.486 367.676 287.84 369.097 286.488C370.519 285.136 372.278 284.46 374.375 284.46C376.473 284.46 378.232 285.136 379.653 286.488C381.075 287.84 381.785 289.486 381.785 291.428C381.785 293.369 381.075 295.016 379.653 296.368ZM371.827 294.08C372.521 294.79 373.37 295.146 374.375 295.146C375.381 295.146 376.23 294.79 376.923 294.08C377.617 293.369 377.963 292.494 377.963 291.454C377.963 290.396 377.617 289.512 376.923 288.802C376.23 288.091 375.381 287.736 374.375 287.736C373.353 287.736 372.495 288.091 371.801 288.802C371.125 289.512 370.787 290.396 370.787 291.454C370.787 292.494 371.134 293.369 371.827 294.08ZM391.014 298.396C388.726 298.396 386.871 297.737 385.45 296.42C384.028 295.102 383.318 293.464 383.318 291.506C383.318 289.512 384.02 287.84 385.424 286.488C386.845 285.136 388.708 284.46 391.014 284.46C392.556 284.46 393.969 284.832 395.252 285.578C395.962 286.028 396.04 286.618 395.486 287.346L395.07 287.866C394.636 288.403 394.047 288.507 393.302 288.178C392.66 287.866 391.976 287.71 391.248 287.71C390.121 287.71 389.185 288.056 388.44 288.75C387.712 289.443 387.348 290.336 387.348 291.428C387.348 292.52 387.712 293.412 388.44 294.106C389.185 294.799 390.121 295.146 391.248 295.146C391.976 295.146 392.66 294.99 393.302 294.678C394.064 294.331 394.654 294.435 395.07 294.99L395.486 295.51C395.746 295.822 395.832 296.16 395.746 296.524C395.676 296.87 395.434 297.156 395.018 297.382C393.822 298.058 392.487 298.396 391.014 298.396ZM408.924 298.396C407.815 298.396 406.896 298.127 406.168 297.59C405.44 297.052 404.799 296.264 404.244 295.224L402.372 291.792V296.862C402.372 297.694 401.956 298.11 401.124 298.11H399.59C398.758 298.11 398.342 297.694 398.342 296.862V280.56C398.342 279.728 398.758 279.312 399.59 279.312H401.124C401.956 279.312 402.372 279.728 402.372 280.56V290.206L405.674 285.552C406.038 285.014 406.541 284.746 407.182 284.746H408.924C409.462 284.746 409.8 284.902 409.938 285.214C410.094 285.508 410.008 285.864 409.678 286.28L406.09 290.934L407.806 293.716C408.136 294.218 408.439 294.574 408.716 294.782C408.994 294.972 409.34 295.068 409.756 295.068C410.016 295.068 410.276 295.024 410.536 294.938C411.056 294.799 411.412 294.929 411.602 295.328L412.174 296.472C412.417 296.992 412.218 297.416 411.576 297.746C410.779 298.179 409.895 298.396 408.924 298.396ZM421.742 298.11C420.893 298.11 420.468 297.694 420.468 296.862V281.158C420.468 280.326 420.893 279.91 421.742 279.91H427.748C430.469 279.91 432.697 280.794 434.43 282.562C436.181 284.312 437.056 286.462 437.056 289.01C437.056 291.575 436.181 293.733 434.43 295.484C432.697 297.234 430.469 298.11 427.748 298.11H421.742ZM424.602 294.626H427.332C429.031 294.626 430.383 294.106 431.388 293.066C432.393 292.008 432.896 290.656 432.896 289.01C432.896 287.363 432.393 286.02 431.388 284.98C430.383 283.922 429.031 283.394 427.332 283.394H424.602V294.626ZM440.775 298.11C439.943 298.11 439.527 297.694 439.527 296.862V285.994C439.527 285.162 439.943 284.746 440.775 284.746H442.205C443.037 284.746 443.453 285.162 443.453 285.994V287.658C443.643 286.566 444.085 285.76 444.779 285.24C445.489 284.72 446.2 284.46 446.911 284.46L447.353 284.486C447.855 284.52 448.107 284.876 448.107 285.552V287.372C448.107 287.736 448.02 287.996 447.847 288.152C447.691 288.308 447.474 288.368 447.197 288.334C446.885 288.299 446.668 288.282 446.547 288.282C445.663 288.282 444.943 288.62 444.389 289.296C443.834 289.972 443.557 291.09 443.557 292.65V296.862C443.557 297.694 443.141 298.11 442.309 298.11H440.775ZM461.64 296.368C460.218 297.72 458.459 298.396 456.362 298.396C454.264 298.396 452.505 297.72 451.084 296.368C449.662 295.016 448.952 293.369 448.952 291.428C448.952 289.486 449.662 287.84 451.084 286.488C452.505 285.136 454.264 284.46 456.362 284.46C458.459 284.46 460.218 285.136 461.64 286.488C463.061 287.84 463.772 289.486 463.772 291.428C463.772 293.369 463.061 295.016 461.64 296.368ZM453.814 294.08C454.507 294.79 455.356 295.146 456.362 295.146C457.367 295.146 458.216 294.79 458.91 294.08C459.603 293.369 459.95 292.494 459.95 291.454C459.95 290.396 459.603 289.512 458.91 288.802C458.216 288.091 457.367 287.736 456.362 287.736C455.339 287.736 454.481 288.091 453.788 288.802C453.112 289.512 452.774 290.396 452.774 291.454C452.774 292.494 453.12 293.369 453.814 294.08ZM467.384 303.934C466.552 303.934 466.136 303.518 466.136 302.686V285.994C466.136 285.162 466.552 284.746 467.384 284.746H468.918C469.75 284.746 470.166 285.162 470.166 285.994V286.618C471.102 285.179 472.532 284.46 474.456 284.46C476.311 284.46 477.845 285.127 479.058 286.462C480.271 287.796 480.878 289.452 480.878 291.428C480.878 293.421 480.271 295.085 479.058 296.42C477.845 297.737 476.311 298.396 474.456 298.396C472.532 298.396 471.102 297.668 470.166 296.212V302.686C470.166 303.518 469.75 303.934 468.918 303.934H467.384ZM473.52 295.172C474.543 295.172 475.349 294.816 475.938 294.106C476.545 293.395 476.848 292.502 476.848 291.428C476.848 290.37 476.545 289.486 475.938 288.776C475.349 288.048 474.543 287.684 473.52 287.684C472.515 287.684 471.691 288.039 471.05 288.75C470.426 289.46 470.114 290.353 470.114 291.428C470.114 292.502 470.426 293.395 471.05 294.106C471.691 294.816 472.515 295.172 473.52 295.172ZM485.094 292C484.453 292 484.097 291.688 484.028 291.064L483.118 281.496V280.898C483.118 280.239 483.447 279.91 484.106 279.91H486.94C487.599 279.91 487.928 280.239 487.928 280.898V281.496L487.018 291.064C486.931 291.688 486.585 292 485.978 292H485.094ZM487.278 297.746C486.81 298.179 486.221 298.396 485.51 298.396C484.799 298.396 484.21 298.188 483.742 297.772C483.274 297.338 483.04 296.792 483.04 296.134C483.04 295.475 483.274 294.929 483.742 294.496C484.21 294.045 484.799 293.82 485.51 293.82C486.203 293.82 486.793 294.045 487.278 294.496C487.763 294.929 488.006 295.475 488.006 296.134C488.006 296.775 487.763 297.312 487.278 297.746Z" fill="white"/>
    </g>
    <defs>
        <filter id="filter0_d" x="134.568" y="50.9077" width="297.101" height="529.163" filterUnits="userSpaceOnUse" color-interpolation-filters="sRGB">
            <feFlood flood-opacity="0" result="BackgroundImageFix"/>
            <feColorMatrix in="SourceAlpha" type="matrix" values="0 0 0 0 0 0 0 0 0 0 0 0 0 0 0 0 0 0 127 0"/>
            <feOffset dx="5" dy="5"/>
            <feGaussianBlur stdDeviation="10"/>
            <feColorMatrix type="matrix" values="0 0 0 0 0 0 0 0 0 0 0 0 0 0 0 0 0 0 0.5 0"/>
            <feBlend mode="normal" in2="BackgroundImageFix" result="effect1_dropShadow"/>
            <feBlend mode="normal" in="SourceGraphic" in2="effect1_dropShadow" result="shape"/>
        </filter>
        <filter id="filter1_d" x="278.118" y="11.2527" width="219.013" height="180.265" filterUnits="userSpaceOnUse" color-interpolation-filters="sRGB">
            <feFlood flood-opacity="0" result="BackgroundImageFix"/>
            <feColorMatrix in="SourceAlpha" type="matrix" values="0 0 0 0 0 0 0 0 0 0 0 0 0 0 0 0 0 0 127 0"/>
            <feOffset dx="20" dy="20"/>
            <feGaussianBlur stdDeviation="10"/>
            <feColorMatrix type="matrix" values="0 0 0 0 0 0 0 0 0 0 0 0 0 0 0 0 0 0 0.5 0"/>
            <feBlend mode="normal" in2="BackgroundImageFix" result="effect1_dropShadow"/>
            <feBlend mode="normal" in="SourceGraphic" in2="effect1_dropShadow" result="shape"/>
        </filter>
        <filter id="filter2_d" x="15.5472" y="93.2354" width="295.733" height="240.378" filterUnits="userSpaceOnUse" color-interpolation-filters="sRGB">
            <feFlood flood-opacity="0" result="BackgroundImageFix"/>
            <feColorMatrix in="SourceAlpha" type="matrix" values="0 0 0 0 0 0 0 0 0 0 0 0 0 0 0 0 0 0 127 0"/>
            <feOffset dx="20" dy="20"/>
            <feGaussianBlur stdDeviation="10"/>
            <feColorMatrix type="matrix" values="0 0 0 0 0 0 0 0 0 0 0 0 0 0 0 0 0 0 0.5 0"/>
            <feBlend mode="normal" in2="BackgroundImageFix" result="effect1_dropShadow"/>
            <feBlend mode="normal" in="SourceGraphic" in2="effect1_dropShadow" result="shape"/>
        </filter>
        <filter id="filter3_d" x="100.336" y="359.678" width="219.013" height="180.265" filterUnits="userSpaceOnUse" color-interpolation-filters="sRGB">
            <feFlood flood-opacity="0" result="BackgroundImageFix"/>
            <feColorMatrix in="SourceAlpha" type="matrix" values="0 0 0 0 0 0 0 0 0 0 0 0 0 0 0 0 0 0 127 0"/>
            <feOffset dx="20" dy="20"/>
            <feGaussianBlur stdDeviation="10"/>
            <feColorMatrix type="matrix" values="0 0 0 0 0 0 0 0 0 0 0 0 0 0 0 0 0 0 0.5 0"/>
            <feBlend mode="normal" in2="BackgroundImageFix" result="effect1_dropShadow"/>
            <feBlend mode="normal" in="SourceGraphic" in2="effect1_dropShadow" result="shape"/>
        </filter>
        <filter id="filter4_d" x="284.956" y="208.011" width="295.733" height="240.378" filterUnits="userSpaceOnUse" color-interpolation-filters="sRGB">
            <feFlood flood-opacity="0" result="BackgroundImageFix"/>
            <feColorMatrix in="SourceAlpha" type="matrix" values="0 0 0 0 0 0 0 0 0 0 0 0 0 0 0 0 0 0 127 0"/>
            <feOffset dx="20" dy="20"/>
            <feGaussianBlur stdDeviation="10"/>
            <feColorMatrix type="matrix" values="0 0 0 0 0 0 0 0 0 0 0 0 0 0 0 0 0 0 0.5 0"/>
            <feBlend mode="normal" in2="BackgroundImageFix" result="effect1_dropShadow"/>
            <feBlend mode="normal" in="SourceGraphic" in2="effect1_dropShadow" result="shape"/>
        </filter>
        <linearGradient id="paint0_linear" x1="278.118" y1="38.2534" x2="430.786" y2="158.082" gradientUnits="userSpaceOnUse">
            <stop stop-color="#9DB3FE"/>
            <stop offset="1" stop-color="#8C83FA"/>
        </linearGradient>
        <linearGradient id="paint1_linear" x1="15.5472" y1="131.808" x2="233.644" y2="302.992" gradientUnits="userSpaceOnUse">
            <stop stop-color="#8C83FA"/>
            <stop offset="1" stop-color="#9DB3FE"/>
        </linearGradient>
        <linearGradient id="paint2_linear" x1="279.349" y1="386.679" x2="126.681" y2="506.508" gradientUnits="userSpaceOnUse">
            <stop stop-color="#9DB3FE"/>
            <stop offset="1" stop-color="#8C83FA"/>
        </linearGradient>
        <linearGradient id="paint3_linear" x1="540.689" y1="246.583" x2="322.592" y2="417.767" gradientUnits="userSpaceOnUse">
            <stop stop-color="#9DB3FE"/>
            <stop offset="1" stop-color="#8C83FA"/>
        </linearGradient>
        <clipPath id="clip0">
            <rect width="578" height="579" fill="white"/>
        </clipPath>
    </defs>
</svg>
