<svg width="79" height="101" viewBox="0 0 79 101" fill="none" xmlns="http://www.w3.org/2000/svg">
    <g filter="url(#filter0_d)">
        <rect x="9.07718" y="2.8255" width="49.7416" height="85.349" rx="12.5034" fill="white" stroke="white" stroke-width="4.34899"/>
        <path fill-rule="evenodd" clip-rule="evenodd" d="M13.9758 16.1815C14.3493 15.9782 14.7282 15.7874 15.112 15.6077V14.7219C15.112 11.6045 17.639 9.07718 20.7564 9.07718H46.6617C49.7792 9.07718 52.3062 11.6045 52.3062 14.7219V29.9436L43.746 21.3837C37.2318 14.8694 27.1959 14.0282 19.7689 18.8547C19.6814 18.7468 19.5879 18.6422 19.4873 18.5419C17.9179 16.9724 15.3734 16.9724 13.804 18.5419C12.2346 20.1113 12.2346 22.6557 13.804 24.2252C13.9046 24.3255 14.0092 24.419 14.1171 24.5068C9.29056 31.9335 10.1315 41.9696 16.6458 48.4839L26.4653 58.3034C26.4653 58.3034 31.5017 63.938 30.9442 71.7224C30.8537 72.9869 32.3864 73.6817 33.2826 72.7852L37.1151 68.953L52.3062 53.7619V55.6963C52.4297 55.9224 52.5458 56.1515 52.6544 56.3833L39.9596 69.0781C43.3035 72.422 48.3582 73.0124 52.3062 70.8491V76.1621C52.3062 79.2795 49.7792 81.8065 46.6618 81.8065H20.7564C17.639 81.8065 15.112 79.2795 15.112 76.1621V56.06L11.0348 51.9828V76.1621C11.0348 81.5228 15.396 85.8837 20.7564 85.8837H46.6618C52.0224 85.8837 56.3834 81.5228 56.3834 76.1621V66.8144C58.1533 63.6636 58.1533 59.7869 56.3834 56.6362V49.6847L64.2154 41.8527L68.0476 38.0205C68.9441 37.1243 68.249 35.5916 66.9848 35.6821C62.5286 36.001 58.7769 34.4871 56.3834 33.1341V14.7219C56.3834 9.36123 52.0224 5 46.6617 5H20.7564C15.396 5 11.0348 9.36123 11.0348 14.7219V15.2055C12.0927 15.2764 13.0989 15.6118 13.9758 16.1815ZM40.6177 39.8041C39.6963 38.8827 38.4677 39.0243 36.932 39.7095L36.7667 39.7805L40.5941 43.6079C41.5865 42.1904 41.6099 40.7962 40.6177 39.8041ZM28.3321 34.0866C27.5526 35.2442 27.387 36.5908 28.3794 37.5831C28.9464 38.1504 29.7969 38.7171 31.7814 37.8194L31.9942 37.7487L28.3321 34.0866ZM43.5237 49.2781L41.799 47.5535C38.8694 50.1523 35.5147 50.625 32.8211 49.2072C32.3723 48.9946 32.3248 48.5692 32.5849 48.1678L33.7425 46.2069C34.0024 45.8049 34.3332 45.7106 34.7822 45.9232C36.1524 46.4904 37.8061 46.2067 39.2709 45.0254L34.9002 40.6546L33.8371 41.1507C30.6947 42.781 27.4816 42.7337 25.5208 40.7726C22.9217 38.1738 23.3471 34.3937 25.7806 31.5351L23.8904 29.6449C23.5833 29.3377 23.5833 29.0069 23.8904 28.6995L24.3155 28.2744C24.6227 27.9673 24.9535 27.9673 25.2606 28.2747L27.1745 30.1882C29.5604 28.2744 32.3014 27.9439 34.7346 29.1012C35.1837 29.3141 35.2549 29.7158 35.0421 30.1646L34.0024 32.1018C33.7659 32.5272 33.4354 32.6218 32.9627 32.4326C31.8053 31.9365 30.7656 32.0781 29.7496 32.7634L33.8605 36.8743L35.0184 36.3309C38.7512 34.441 41.6335 34.8661 43.5 36.6854C46.1698 39.3551 45.7207 43.0642 43.1456 46.1594L44.8939 47.9077C45.201 48.2148 45.201 48.5456 44.8939 48.8527L44.4688 49.2779C44.1616 49.5853 43.8308 49.5853 43.5237 49.2781Z" fill="url(#paint0_linear)"/>
        <mask id="path-3-outside-1" maskUnits="userSpaceOnUse" x="0" y="10.7725" width="67" height="67" fill="black">
            <rect fill="white" y="10.7725" width="67" height="67"/>
            <path fill-rule="evenodd" clip-rule="evenodd" d="M37.7112 21.3836L47.5307 31.2028C47.5307 31.2028 53.1654 36.2393 60.9501 35.682C62.2143 35.5915 62.9093 37.1243 62.0128 38.0204L58.1806 41.8527L31.0804 68.9529L27.2478 72.7852C26.3516 73.6816 24.8189 72.9869 24.9094 71.7224C25.4669 63.938 20.4305 58.3033 20.4305 58.3033L10.611 48.4838C4.09676 41.9696 3.25577 31.9335 8.08234 24.5068C7.97443 24.419 7.86978 24.3255 7.76921 24.2252C6.19977 22.6557 6.19977 20.1113 7.76921 18.5418C9.33865 16.9724 11.8831 16.9724 13.4525 18.5418C13.5531 18.6421 13.6466 18.7468 13.7341 18.8547C21.1611 14.0281 31.197 14.8694 37.7112 21.3836ZM30.8972 39.7095C32.4329 39.0243 33.6615 38.8826 34.583 39.8041C35.5751 40.7962 35.5517 42.1903 34.5593 43.6078L30.7319 39.7804L30.8972 39.7095ZM22.3446 37.5831C21.3522 36.5907 21.5178 35.2442 22.2973 34.0865L25.9594 37.7486L25.7466 37.8193C23.7621 38.7171 22.9116 38.1504 22.3446 37.5831ZM35.7643 47.5535L37.4889 49.2781C37.796 49.5853 38.1268 49.5853 38.434 49.2778L38.8591 48.8527C39.1663 48.5456 39.1663 48.2148 38.8591 47.9076L37.1108 46.1593C39.686 43.0642 40.135 39.3551 37.4653 36.6853C35.5987 34.8661 32.7164 34.441 28.9836 36.3309L27.8257 36.8742L23.7148 32.7633C24.7309 32.0781 25.7705 31.9365 26.9279 32.4325C27.4006 32.6217 27.7311 32.5271 27.9676 32.1018L29.0073 30.1645C29.2201 29.7158 29.1489 29.314 28.6999 29.1012C26.2666 27.9438 23.5256 28.2744 21.1397 30.1882L19.2258 28.2746C18.9187 27.9672 18.5879 27.9672 18.2808 28.2744L17.8556 28.6995C17.5485 29.0069 17.5485 29.3377 17.8556 29.6448L19.7458 31.535C17.3123 34.3937 16.8869 38.1738 19.486 40.7726C21.4468 42.7337 24.6599 42.781 27.8023 41.1507L28.8654 40.6546L33.2361 45.0253C31.7713 46.2066 30.1176 46.4904 28.7474 45.9231C28.2984 45.7106 27.9676 45.8049 27.7077 46.2069L26.5501 48.1677C26.29 48.5692 26.3375 48.9946 26.7863 49.2072C29.48 50.6249 32.8347 50.1523 35.7643 47.5535Z"/>
        </mask>
        <path fill-rule="evenodd" clip-rule="evenodd" d="M37.7112 21.3836L47.5307 31.2028C47.5307 31.2028 53.1654 36.2393 60.9501 35.682C62.2143 35.5915 62.9093 37.1243 62.0128 38.0204L58.1806 41.8527L31.0804 68.9529L27.2478 72.7852C26.3516 73.6816 24.8189 72.9869 24.9094 71.7224C25.4669 63.938 20.4305 58.3033 20.4305 58.3033L10.611 48.4838C4.09676 41.9696 3.25577 31.9335 8.08234 24.5068C7.97443 24.419 7.86978 24.3255 7.76921 24.2252C6.19977 22.6557 6.19977 20.1113 7.76921 18.5418C9.33865 16.9724 11.8831 16.9724 13.4525 18.5418C13.5531 18.6421 13.6466 18.7468 13.7341 18.8547C21.1611 14.0281 31.197 14.8694 37.7112 21.3836ZM30.8972 39.7095C32.4329 39.0243 33.6615 38.8826 34.583 39.8041C35.5751 40.7962 35.5517 42.1903 34.5593 43.6078L30.7319 39.7804L30.8972 39.7095ZM22.3446 37.5831C21.3522 36.5907 21.5178 35.2442 22.2973 34.0865L25.9594 37.7486L25.7466 37.8193C23.7621 38.7171 22.9116 38.1504 22.3446 37.5831ZM35.7643 47.5535L37.4889 49.2781C37.796 49.5853 38.1268 49.5853 38.434 49.2778L38.8591 48.8527C39.1663 48.5456 39.1663 48.2148 38.8591 47.9076L37.1108 46.1593C39.686 43.0642 40.135 39.3551 37.4653 36.6853C35.5987 34.8661 32.7164 34.441 28.9836 36.3309L27.8257 36.8742L23.7148 32.7633C24.7309 32.0781 25.7705 31.9365 26.9279 32.4325C27.4006 32.6217 27.7311 32.5271 27.9676 32.1018L29.0073 30.1645C29.2201 29.7158 29.1489 29.314 28.6999 29.1012C26.2666 27.9438 23.5256 28.2744 21.1397 30.1882L19.2258 28.2746C18.9187 27.9672 18.5879 27.9672 18.2808 28.2744L17.8556 28.6995C17.5485 29.0069 17.5485 29.3377 17.8556 29.6448L19.7458 31.535C17.3123 34.3937 16.8869 38.1738 19.486 40.7726C21.4468 42.7337 24.6599 42.781 27.8023 41.1507L28.8654 40.6546L33.2361 45.0253C31.7713 46.2066 30.1176 46.4904 28.7474 45.9231C28.2984 45.7106 27.9676 45.8049 27.7077 46.2069L26.5501 48.1677C26.29 48.5692 26.3375 48.9946 26.7863 49.2072C29.48 50.6249 32.8347 50.1523 35.7643 47.5535Z" fill="url(#paint1_linear)"/>
        <path d="M47.5307 31.2028L44.4555 34.2781L44.5417 34.3642L44.6325 34.4454L47.5307 31.2028ZM37.7112 21.3836L34.636 24.4588L34.6361 24.4589L37.7112 21.3836ZM60.9501 35.682L61.2606 40.0199L61.2606 40.0199L60.9501 35.682ZM62.0128 38.0204L58.9381 34.9448L58.9376 34.9452L62.0128 38.0204ZM58.1806 41.8527L55.1054 38.7775L58.1806 41.8527ZM31.0804 68.9529L34.1555 72.0282L34.1556 72.0281L31.0804 68.9529ZM27.2478 72.7852L24.1727 69.7099L24.1721 69.7105L27.2478 72.7852ZM24.9094 71.7224L20.5715 71.4118L20.5715 71.4119L24.9094 71.7224ZM20.4305 58.3033L23.673 55.4051L23.5918 55.3143L23.5057 55.2281L20.4305 58.3033ZM10.611 48.4838L13.6862 45.4086L10.611 48.4838ZM8.08234 24.5068L11.7289 26.8766L13.8585 23.5997L10.827 21.1333L8.08234 24.5068ZM7.76921 24.2252L4.694 27.3004L4.69817 27.3045L7.76921 24.2252ZM7.76921 18.5418L4.69401 15.4666L4.69401 15.4666L7.76921 18.5418ZM13.4525 18.5418L10.3773 21.617L10.3815 21.6212L13.4525 18.5418ZM13.7341 18.8547L10.3565 21.5943L12.822 24.6341L16.1039 22.5013L13.7341 18.8547ZM30.8972 39.7095L32.6127 43.7058L32.6411 43.6937L32.6693 43.6811L30.8972 39.7095ZM34.5593 43.6078L31.4841 46.683L35.1493 50.3482L38.122 46.102L34.5593 43.6078ZM30.7319 39.7804L29.0164 35.7841L23.1175 38.3164L27.6567 42.8556L30.7319 39.7804ZM22.2973 34.0865L25.3725 31.0113L21.6391 27.2779L18.69 31.6574L22.2973 34.0865ZM22.3446 37.5831L25.4206 34.5086L25.4198 34.5079L22.3446 37.5831ZM25.9594 37.7486L27.33 41.876L34.0168 39.6556L29.0346 34.6734L25.9594 37.7486ZM25.7466 37.8193L24.3761 33.6919L24.1608 33.7634L23.954 33.857L25.7466 37.8193ZM35.7643 47.5535L38.8395 44.4783L35.9428 41.5816L32.8782 44.3001L35.7643 47.5535ZM38.434 49.2778L35.3588 46.2026L35.3574 46.204L38.434 49.2778ZM38.8591 48.8527L35.7839 45.7775L35.7839 45.7775L38.8591 48.8527ZM38.8591 47.9076L41.9343 44.8324L41.9343 44.8324L38.8591 47.9076ZM37.1108 46.1593L33.7676 43.3778L31.2295 46.4284L34.0356 49.2345L37.1108 46.1593ZM37.4653 36.6853L40.5405 33.6101L40.5207 33.5904L40.5007 33.5709L37.4653 36.6853ZM28.9836 36.3309L30.8311 40.268L30.89 40.2403L30.9481 40.2109L28.9836 36.3309ZM27.8257 36.8742L24.7505 39.9494L26.9093 42.1082L29.6732 40.8113L27.8257 36.8742ZM23.7148 32.7633L21.2831 29.1577L16.9089 32.1078L20.6396 35.8385L23.7148 32.7633ZM26.9279 32.4325L25.2146 36.4299L25.263 36.4506L25.3119 36.4702L26.9279 32.4325ZM27.9676 32.1018L31.7687 34.2148L31.7844 34.1867L31.7996 34.1583L27.9676 32.1018ZM29.0073 30.1645L32.8393 32.2211L32.8904 32.1259L32.9368 32.0281L29.0073 30.1645ZM28.6999 29.1012L26.8318 33.0286L26.8372 33.0311L28.6999 29.1012ZM21.1397 30.1882L18.0647 33.2636L20.8207 36.0192L23.8608 33.5807L21.1397 30.1882ZM19.2258 28.2746L16.1493 31.3485L16.1509 31.3501L19.2258 28.2746ZM18.2808 28.2744L15.2056 25.1992L15.2055 25.1992L18.2808 28.2744ZM17.8556 28.6995L14.7804 25.6243L14.7791 25.6256L17.8556 28.6995ZM19.7458 31.535L23.0574 34.3541L25.6591 31.2979L22.821 28.4598L19.7458 31.535ZM19.486 40.7726L22.5614 37.6976L22.561 37.6972L19.486 40.7726ZM27.8023 41.1507L25.9633 37.2096L25.8806 37.2482L25.7995 37.2903L27.8023 41.1507ZM28.8654 40.6546L31.9406 37.5794L29.7867 35.4255L27.0264 36.7136L28.8654 40.6546ZM33.2361 45.0253L35.9662 48.4106L39.7336 45.3724L36.3113 41.9501L33.2361 45.0253ZM28.7474 45.9231L26.8867 49.854L26.9842 49.9001L27.0838 49.9414L28.7474 45.9231ZM27.7077 46.2069L24.0553 43.846L24.0075 43.92L23.9627 43.9959L27.7077 46.2069ZM26.5501 48.1677L30.1999 50.5326L30.2491 50.4566L30.2951 50.3787L26.5501 48.1677ZM26.7863 49.2072L28.8119 45.3587L28.7308 45.316L28.648 45.2768L26.7863 49.2072ZM50.6059 28.1276L40.7864 18.3084L34.6361 24.4589L44.4555 34.2781L50.6059 28.1276ZM60.6396 31.3441C57.7583 31.5504 55.1927 30.7237 53.2642 29.7606C52.3114 29.2848 51.5583 28.7971 51.0579 28.4402C50.8092 28.2629 50.6275 28.1211 50.5195 28.0339C50.4656 27.9905 50.4305 27.9609 50.415 27.9478C50.4073 27.9412 50.4045 27.9387 50.4068 27.9407C50.4079 27.9417 50.4104 27.9438 50.414 27.9471C50.4159 27.9487 50.418 27.9506 50.4205 27.9528C50.4218 27.9539 50.4231 27.9551 50.4245 27.9564C50.4252 27.957 50.4263 27.958 50.4267 27.9583C50.4278 27.9593 50.4289 27.9603 47.5307 31.2028C44.6325 34.4454 44.6336 34.4464 44.6349 34.4475C44.6353 34.4479 44.6365 34.449 44.6374 34.4498C44.6392 34.4514 44.641 34.453 44.6429 34.4547C44.6468 34.4581 44.651 34.4619 44.6556 34.4659C44.6647 34.474 44.6754 34.4833 44.6874 34.4938C44.7115 34.5148 44.7413 34.5406 44.7767 34.5708C44.8476 34.6311 44.9412 34.7092 45.0566 34.8024C45.2871 34.9885 45.6064 35.2358 46.0076 35.5219C46.807 36.092 47.9491 36.8286 49.3781 37.5422C52.213 38.958 56.3571 40.3709 61.2606 40.0199L60.6396 31.3441ZM65.0876 41.0961C68.8068 37.378 65.955 30.9636 60.6395 31.3441L61.2606 40.0199C58.4735 40.2195 57.0118 36.8705 58.9381 34.9448L65.0876 41.0961ZM61.2558 44.9279L65.088 41.0956L58.9376 34.9452L55.1054 38.7775L61.2558 44.9279ZM34.1556 72.0281L61.2558 44.9279L55.1054 38.7775L28.0052 65.8777L34.1556 72.0281ZM30.3229 75.8605L34.1555 72.0282L28.0053 65.8776L24.1727 69.7099L30.3229 75.8605ZM20.5715 71.4119C20.1909 76.7286 26.6061 79.5785 30.3235 75.8599L24.1721 69.7105C26.0972 67.7848 29.4469 69.2452 29.2473 72.0329L20.5715 71.4119ZM20.4305 58.3033C17.188 61.2016 17.1869 61.2004 17.1859 61.1993C17.1856 61.1989 17.1846 61.1978 17.184 61.1971C17.1827 61.1957 17.1816 61.1944 17.1805 61.1931C17.1783 61.1907 17.1763 61.1885 17.1747 61.1867C17.1715 61.183 17.1694 61.1806 17.1684 61.1794C17.1664 61.1772 17.1688 61.1799 17.1754 61.1877C17.1886 61.2031 17.2181 61.2382 17.2616 61.2921C17.3487 61.4001 17.4905 61.5818 17.6679 61.8305C18.0247 62.3309 18.5124 63.084 18.9882 64.0368C19.9513 65.9653 20.7779 68.5307 20.5715 71.4118L29.2473 72.0331C29.5985 67.1297 28.1856 62.9856 26.7698 60.1507C26.0562 58.7217 25.3196 57.5796 24.7496 56.7803C24.4635 56.3791 24.2161 56.0598 24.03 55.8292C23.9369 55.7138 23.8588 55.6202 23.7984 55.5493C23.7682 55.5139 23.7425 55.4841 23.7215 55.46C23.711 55.448 23.7016 55.4374 23.6936 55.4282C23.6895 55.4236 23.6858 55.4194 23.6823 55.4156C23.6806 55.4136 23.679 55.4118 23.6774 55.41C23.6767 55.4092 23.6756 55.4079 23.6752 55.4075C23.6741 55.4063 23.673 55.4051 20.4305 58.3033ZM7.5358 51.559L17.3553 61.3785L23.5057 55.2281L13.6862 45.4086L7.5358 51.559ZM4.43577 22.1369C-1.48637 31.2494 -0.461329 43.5619 7.5358 51.559L13.6862 45.4086C8.65484 40.3773 7.99791 32.6176 11.7289 26.8766L4.43577 22.1369ZM4.69817 27.3045C4.91011 27.5159 5.12473 27.707 5.33766 27.8802L10.827 21.1333C10.8241 21.1309 10.8295 21.135 10.8403 21.1458L4.69817 27.3045ZM4.69401 15.4666C1.42618 18.7345 1.42618 24.0325 4.69401 27.3004L10.8444 21.15C10.9734 21.2789 10.9734 21.4881 10.8444 21.617L4.69401 15.4666ZM16.5277 15.4666C13.2599 12.1988 7.96184 12.1988 4.69401 15.4666L10.8444 21.617C10.7155 21.746 10.5063 21.746 10.3773 21.617L16.5277 15.4666ZM17.1118 16.1151C16.9361 15.8986 16.7409 15.6792 16.5236 15.4625L10.3815 21.6212C10.3653 21.605 10.3571 21.595 10.3565 21.5943L17.1118 16.1151ZM40.7864 18.3084C32.7893 10.3114 20.4771 9.28595 11.3643 15.2081L16.1039 22.5013C21.8451 18.7703 29.6046 19.4274 34.636 24.4588L40.7864 18.3084ZM37.6582 36.7289C36.3124 35.3831 34.6244 34.7893 32.9288 34.8055C31.4384 34.8198 30.1058 35.3004 29.1251 35.7379L32.6693 43.6811C32.9157 43.5711 33.069 43.5198 33.147 43.4983C33.226 43.4765 33.1698 43.5016 33.012 43.5031C32.8393 43.5047 32.563 43.4774 32.2439 43.352C31.9185 43.2241 31.6706 43.0422 31.5078 42.8793L37.6582 36.7289ZM38.122 46.102C38.9726 44.887 39.6482 43.3435 39.6641 41.5858C39.6809 39.7278 38.9498 38.0205 37.6582 36.7289L31.5078 42.8793C31.3843 42.7558 31.2354 42.5603 31.1229 42.2903C31.0097 42.0185 30.9643 41.7454 30.9665 41.5071C30.9706 41.0488 31.1384 40.9111 30.9966 41.1136L38.122 46.102ZM27.6567 42.8556L31.4841 46.683L37.6345 40.5326L33.8071 36.7052L27.6567 42.8556ZM29.1816 35.7132L29.0164 35.7841L32.4475 43.7768L32.6127 43.7058L29.1816 35.7132ZM18.69 31.6574C17.9698 32.7268 17.3489 34.1467 17.3088 35.7906C17.2658 37.5532 17.9087 39.2976 19.2694 40.6583L25.4198 34.5079C25.5709 34.659 25.7369 34.8865 25.8552 35.1866C25.9723 35.4839 26.0099 35.7692 26.0042 36.0029C25.9936 36.4361 25.8452 36.6039 25.9047 36.5157L18.69 31.6574ZM29.0346 34.6734L25.3725 31.0113L19.2221 37.1617L22.8842 40.8239L29.0346 34.6734ZM27.1171 41.9467L27.33 41.876L24.5889 33.6213L24.3761 33.6919L27.1171 41.9467ZM19.2687 40.6576C19.827 41.2162 20.9377 42.19 22.7072 42.5241C24.4111 42.8458 26.057 42.4522 27.5392 41.7817L23.954 33.857C23.4517 34.0842 23.6802 33.8561 24.321 33.9771C24.6392 34.0372 24.92 34.1595 25.1389 34.2962C25.3367 34.4196 25.4402 34.5283 25.4206 34.5086L19.2687 40.6576ZM40.5641 46.2029L38.8395 44.4783L32.689 50.6287L34.4137 52.3533L40.5641 46.2029ZM35.3574 46.204C35.7354 45.8256 36.6186 45.1597 37.9605 45.1594C39.3024 45.1592 40.1859 45.8247 40.5641 46.2029L34.4137 52.3533C35.0991 53.0387 36.3015 53.8578 37.9624 53.8574C39.6233 53.8571 40.8254 53.0374 41.5105 52.3517L35.3574 46.204ZM35.7839 45.7775L35.3588 46.2026L41.5092 52.353L41.9343 51.9279L35.7839 45.7775ZM35.7839 50.9828C35.4056 50.6045 34.7405 49.7214 34.7405 48.3802C34.7405 47.039 35.4056 46.1558 35.7839 45.7775L41.9343 51.9279C42.6198 51.2424 43.4385 50.0404 43.4385 48.3802C43.4385 46.72 42.6198 45.5179 41.9343 44.8324L35.7839 50.9828ZM34.0356 49.2345L35.7839 50.9828L41.9343 44.8324L40.186 43.0841L34.0356 49.2345ZM34.3901 39.7605C34.8478 40.2183 34.9383 40.5985 34.9139 40.9982C34.8827 41.5112 34.6146 42.3598 33.7676 43.3778L40.454 48.9409C42.1821 46.8638 43.4262 44.3102 43.5958 41.5274C43.7723 38.6313 42.7524 35.8221 40.5405 33.6101L34.3901 39.7605ZM30.9481 40.2109C32.3156 39.5185 33.1847 39.4256 33.6266 39.456C34.0022 39.4817 34.2235 39.5987 34.4298 39.7997L40.5007 33.5709C36.902 30.0633 31.8499 30.0051 27.0192 32.4508L30.9481 40.2109ZM29.6732 40.8113L30.8311 40.268L27.1362 32.3938L25.9782 32.9371L29.6732 40.8113ZM20.6396 35.8385L24.7505 39.9494L30.9009 33.799L26.79 29.6881L20.6396 35.8385ZM28.6412 28.4352C27.4693 27.933 26.1656 27.6795 24.7882 27.8326C23.4247 27.984 22.252 28.5043 21.2831 29.1577L26.1465 36.369C26.1937 36.3372 26.0489 36.444 25.7485 36.4774C25.607 36.4931 25.4762 36.4868 25.3692 36.469C25.2656 36.4519 25.2118 36.4286 25.2146 36.4299L28.6412 28.4352ZM24.1665 29.9887C24.3952 29.5772 25.0172 28.7259 26.2469 28.3442C27.396 27.9874 28.2882 28.2926 28.5439 28.3949L25.3119 36.4702C26.0403 36.7617 27.3341 37.1142 28.8258 36.6511C30.398 36.163 31.3035 35.0517 31.7687 34.2148L24.1665 29.9887ZM25.1753 28.108L24.1356 30.0452L31.7996 34.1583L32.8393 32.2211L25.1753 28.108ZM26.8372 33.0311C26.1217 32.692 25.224 31.9208 24.8911 30.6326C24.5989 29.502 24.9185 28.6369 25.0778 28.301L32.9368 32.0281C33.3089 31.2434 33.6993 29.9531 33.3124 28.4562C32.8848 26.8018 31.727 25.7232 30.5625 25.1713L26.8372 33.0311ZM23.8608 33.5807C25.0585 32.62 26.0303 32.6473 26.8318 33.0286L30.5679 25.1739C26.5029 23.2404 21.9927 23.9288 18.4185 26.7957L23.8608 33.5807ZM16.1509 31.3501L18.0647 33.2636L24.2147 27.1128L22.3008 25.1992L16.1509 31.3501ZM21.356 31.3496C20.9777 31.7278 20.0943 32.3933 18.7524 32.393C17.4104 32.3927 16.5273 31.7268 16.1493 31.3485L22.3024 25.2008C21.6172 24.515 20.4151 23.6954 18.7542 23.695C17.0934 23.6947 15.8909 24.5138 15.2056 25.1992L21.356 31.3496ZM20.9308 31.7747L21.356 31.3496L15.2055 25.1992L14.7804 25.6243L20.9308 31.7747ZM20.9308 26.5696C21.3093 26.9481 21.9743 27.8312 21.9743 29.1723C21.9743 30.5129 21.3097 31.3955 20.9322 31.7733L14.7791 25.6256C14.0944 26.3109 13.2763 27.5126 13.2763 29.1723C13.2763 30.8324 14.0949 32.0345 14.7804 32.72L20.9308 26.5696ZM22.821 28.4598L20.9308 26.5696L14.7804 32.72L16.6706 34.6102L22.821 28.4598ZM22.561 37.6972C22.1629 37.2991 22.0486 36.9181 22.0717 36.4798C22.0991 35.9581 22.3528 35.1818 23.0574 34.3541L16.4343 28.7159C13.0285 32.7166 11.7183 39.1558 16.4109 43.8479L22.561 37.6972ZM25.7995 37.2903C24.7557 37.8318 23.9088 37.9826 23.3614 37.9624C22.8587 37.9438 22.6599 37.7961 22.5614 37.6976L16.4106 43.8476C20.2559 47.6934 25.7808 47.0989 29.8051 45.011L25.7995 37.2903ZM27.0264 36.7136L25.9633 37.2096L29.6413 45.0917L30.7044 44.5956L27.0264 36.7136ZM36.3113 41.9501L31.9406 37.5794L25.7902 43.7298L30.1609 48.1005L36.3113 41.9501ZM27.0838 49.9414C30.2051 51.2336 33.5191 50.3841 35.9662 48.4106L30.506 41.64C30.2619 41.8369 30.1248 41.8612 30.1348 41.8592C30.139 41.8584 30.1712 41.8531 30.2264 41.8582C30.2824 41.8635 30.3466 41.8782 30.411 41.9049L27.0838 49.9414ZM31.3602 48.5677C31.1326 48.9198 30.5056 49.698 29.3132 50.0269C28.1375 50.3513 27.2238 50.0135 26.8867 49.854L30.6081 41.9923C29.822 41.6202 28.5184 41.2233 27 41.6422C25.465 42.0656 24.5427 43.092 24.0553 43.846L31.3602 48.5677ZM30.2951 50.3787L31.4528 48.4179L23.9627 43.9959L22.8051 45.9568L30.2951 50.3787ZM28.648 45.2768C29.4562 45.6596 30.4015 46.535 30.672 47.9312C30.9113 49.1667 30.4816 50.0978 30.1999 50.5326L22.9003 45.8029C22.3584 46.6392 21.8225 47.9837 22.1327 49.5854C22.4742 51.3478 23.6676 52.5422 24.9246 53.1376L28.648 45.2768ZM32.8782 44.3001C31.0284 45.941 29.6025 45.7748 28.8119 45.3587L24.7607 53.0556C29.3574 55.4751 34.6409 54.3635 38.6503 50.8068L32.8782 44.3001Z" fill="white" mask="url(#path-3-outside-1)"/>
    </g>
    <defs>
        <filter id="filter0_d" x="0.651443" y="0.651123" width="77.8016" height="99.698" filterUnits="userSpaceOnUse" color-interpolation-filters="sRGB">
            <feFlood flood-opacity="0" result="BackgroundImageFix"/>
            <feColorMatrix in="SourceAlpha" type="matrix" values="0 0 0 0 0 0 0 0 0 0 0 0 0 0 0 0 0 0 127 0"/>
            <feOffset dx="5" dy="5"/>
            <feGaussianBlur stdDeviation="2.5"/>
            <feColorMatrix type="matrix" values="0 0 0 0 0 0 0 0 0 0 0 0 0 0 0 0 0 0 0.5 0"/>
            <feBlend mode="normal" in2="BackgroundImageFix" result="effect1_dropShadow"/>
            <feBlend mode="normal" in="SourceGraphic" in2="effect1_dropShadow" result="shape"/>
        </filter>
        <linearGradient id="paint0_linear" x1="39.7439" y1="-35.4419" x2="-36.6133" y2="18.763" gradientUnits="userSpaceOnUse">
            <stop stop-color="#9DB3FE"/>
            <stop offset="1" stop-color="#8C83FA"/>
        </linearGradient>
        <linearGradient id="paint1_linear" x1="33.7091" y1="-12.9366" x2="-23.7091" y2="44.4816" gradientUnits="userSpaceOnUse">
            <stop stop-color="#9DB3FE"/>
            <stop offset="1" stop-color="#8C83FA"/>
        </linearGradient>
    </defs>
</svg>