<?xml version="1.0" encoding="UTF-8"?>
<svg width="93px" height="91px" viewBox="0 0 93 91" version="1.1" xmlns="http://www.w3.org/2000/svg" xmlns:xlink="http://www.w3.org/1999/xlink">
    <!-- Generator: Sketch 61.2 (89653) - https://sketch.com -->
    <title>Group 2 Copy</title>
    <desc>Created with Sketch.</desc>
    <defs>
        <filter x="-20.8%" y="-20.8%" width="141.7%" height="141.7%" filterUnits="objectBoundingBox" id="filter-1">
            <feOffset dx="5" dy="5" in="SourceAlpha" result="shadowOffsetOuter1"></feOffset>
            <feGaussianBlur stdDeviation="2" in="shadowOffsetOuter1" result="shadowBlurOuter1"></feGaussianBlur>
            <feColorMatrix values="0 0 0 0 0   0 0 0 0 0   0 0 0 0 0  0 0 0 0.5 0" type="matrix" in="shadowBlurOuter1" result="shadowMatrixOuter1"></feColorMatrix>
            <feMerge>
                <feMergeNode in="shadowMatrixOuter1"></feMergeNode>
                <feMergeNode in="SourceGraphic"></feMergeNode>
            </feMerge>
        </filter>
    </defs>
    <g id="Page-1" stroke="none" stroke-width="1" fill="none" fill-rule="evenodd">
        <g id="alerts-desktop-final" transform="translate(-1094.000000, -1133.000000)">
            <g id="Group-2-Copy" filter="url(#filter-1)" transform="translate(1094.000000, 1131.000000)">
                <g id="Group">
                    <path d="M67,11.005 L66.8981767,11.0042091 C72.5039867,11.0616785 74.6625539,11.7065304 76.8379199,12.8699289 C79.1194014,14.0900786 80.9099214,15.8805986 82.1300711,18.1620801 L82.2966148,18.4807085 C83.4092596,20.6626785 84,22.9968271 84,28.9471964 L84,66.0528036 L83.9957909,66.8981767 C83.9383215,72.5039867 83.2934696,74.6625539 82.1300711,76.8379199 C80.9099214,79.1194014 79.1194014,80.9099214 76.8379199,82.1300711 L76.5192915,82.2966148 C74.3373215,83.4092596 72.0031729,84 66.0528036,84 L17.9471964,84 L17.1018233,83.9957909 C11.4960133,83.9383215 9.33744614,83.2934696 7.16208008,82.1300711 C4.88059859,80.9099214 3.09007857,79.1194014 1.86992893,76.8379199 L1.70338518,76.5192915 C0.590740382,74.3373215 0,72.0031729 0,66.0528036 L0,28.9471964 C0,22.7065652 0.649779278,20.4435616 1.86992893,18.1620801 C3.09007857,15.8805986 4.88059859,14.0900786 7.16208008,12.8699289 L7.4807085,12.7033852 C9.54290728,11.6518149 11.7410367,11.0664255 16.9994405,11.0053284 L17,14.005 L16.6796693,14.0087164 C12.3641457,14.0720373 10.4973467,14.4882899 8.57687665,15.5153685 C6.81820059,16.4559188 5.45591877,17.8182006 4.51536852,19.5768767 L4.3349907,19.9266431 C3.37942984,21.8532545 3.02116457,23.8784774 3.00091675,28.5181369 L3.00091675,66.4818631 L3.00871644,67.3203307 C3.07203725,71.6358543 3.48828992,73.5026533 4.51536852,75.4231233 C5.45591877,77.1817994 6.81820059,78.5440812 8.57687665,79.4846315 L8.92664307,79.6650093 C10.8532545,80.6205702 12.8784774,80.9788354 17.5181369,80.9990833 L66.0528036,81 C71.2896259,81 73.324324,80.6070817 75.4231233,79.4846315 C77.1817994,78.5440812 78.5440812,77.1817994 79.4846315,75.4231233 L79.6650093,75.0733569 C80.6205702,73.1467455 80.9788354,71.1215226 80.9990833,66.4818631 L81,28.9471964 C81,23.7103741 80.6070817,21.675676 79.4846315,19.5768767 C78.5440812,17.8182006 77.1817994,16.4559188 75.4231233,15.5153685 L75.0733569,15.3349907 C73.2202501,14.4158867 71.2759129,14.0493713 67.0016273,14.0047247 L67,11.005 Z M57,11 L57,14 L27,14 L27,11 L57,11 Z" id="Combined-Shape" fill="#97A1FF" fill-rule="nonzero"></path>
                    <path d="M22,3.5 C20.0670034,3.5 18.5,5.06700338 18.5,7 L18.5,16 C18.5,17.9329966 20.0670034,19.5 22,19.5 C23.9329966,19.5 25.5,17.9329966 25.5,16 L25.5,7 C25.5,5.06700338 23.9329966,3.5 22,3.5 Z" id="Rectangle-Copy" stroke="#FFFFFF" stroke-width="3" fill="#FFFFFF"></path>
                    <path d="M62,3.5 C60.0670034,3.5 58.5,5.06700338 58.5,7 L58.5,16 C58.5,17.9329966 60.0670034,19.5 62,19.5 C63.9329966,19.5 65.5,17.9329966 65.5,16 L65.5,7 C65.5,5.06700338 63.9329966,3.5 62,3.5 Z" id="Rectangle-Copy" stroke="#FFFFFF" stroke-width="3" fill="#FFFFFF"></path>
                    <path d="M15.461245,31.65 L21.538755,31.65 C22.8398598,31.65 23.5330411,31.7838595 24.2554002,32.1701813 C24.9306626,32.5313156 25.4686844,33.0693374 25.8298187,33.7445998 C26.2161405,34.4669589 26.35,35.1601402 26.35,36.461245 L26.35,42.538755 C26.35,43.8398598 26.2161405,44.5330411 25.8298187,45.2554002 C25.4686844,45.9306626 24.9306626,46.4686844 24.2554002,46.8298187 C23.5330411,47.2161405 22.8398598,47.35 21.538755,47.35 L15.461245,47.35 C14.1601402,47.35 13.4669589,47.2161405 12.7445998,46.8298187 C12.0693374,46.4686844 11.5313156,45.9306626 11.1701813,45.2554002 C10.7838595,44.5330411 10.65,43.8398598 10.65,42.538755 L10.65,36.461245 C10.65,35.1601402 10.7838595,34.4669589 11.1701813,33.7445998 C11.5313156,33.0693374 12.0693374,32.5313156 12.7445998,32.1701813 C13.4669589,31.7838595 14.1601402,31.65 15.461245,31.65 Z" id="Rectangle-Copy-2" stroke="#97A1FF" stroke-width="2.7"></path>
                    <path d="M39.461245,31.65 L45.538755,31.65 C46.8398598,31.65 47.5330411,31.7838595 48.2554002,32.1701813 C48.9306626,32.5313156 49.4686844,33.0693374 49.8298187,33.7445998 C50.2161405,34.4669589 50.35,35.1601402 50.35,36.461245 L50.35,42.538755 C50.35,43.8398598 50.2161405,44.5330411 49.8298187,45.2554002 C49.4686844,45.9306626 48.9306626,46.4686844 48.2554002,46.8298187 C47.5330411,47.2161405 46.8398598,47.35 45.538755,47.35 L39.461245,47.35 C38.1601402,47.35 37.4669589,47.2161405 36.7445998,46.8298187 C36.0693374,46.4686844 35.5313156,45.9306626 35.1701813,45.2554002 C34.7838595,44.5330411 34.65,43.8398598 34.65,42.538755 L34.65,36.461245 C34.65,35.1601402 34.7838595,34.4669589 35.1701813,33.7445998 C35.5313156,33.0693374 36.0693374,32.5313156 36.7445998,32.1701813 C37.4669589,31.7838595 38.1601402,31.65 39.461245,31.65 Z" id="Rectangle-Copy-2" stroke="#97A1FF" stroke-width="2.7"></path>
                    <path d="M62.461245,31.65 L68.538755,31.65 C69.8398598,31.65 70.5330411,31.7838595 71.2554002,32.1701813 C71.9306626,32.5313156 72.4686844,33.0693374 72.8298187,33.7445998 C73.2161405,34.4669589 73.35,35.1601402 73.35,36.461245 L73.35,42.538755 C73.35,43.8398598 73.2161405,44.5330411 72.8298187,45.2554002 C72.4686844,45.9306626 71.9306626,46.4686844 71.2554002,46.8298187 C70.5330411,47.2161405 69.8398598,47.35 68.538755,47.35 L62.461245,47.35 C61.1601402,47.35 60.4669589,47.2161405 59.7445998,46.8298187 C59.0693374,46.4686844 58.5313156,45.9306626 58.1701813,45.2554002 C57.7838595,44.5330411 57.65,43.8398598 57.65,42.538755 L57.65,36.461245 C57.65,35.1601402 57.7838595,34.4669589 58.1701813,33.7445998 C58.5313156,33.0693374 59.0693374,32.5313156 59.7445998,32.1701813 C60.4669589,31.7838595 61.1601402,31.65 62.461245,31.65 Z" id="Rectangle-Copy-2" stroke="#97A1FF" stroke-width="2.7"></path>
                    <path d="M15.461245,56.65 L21.538755,56.65 C22.8398598,56.65 23.5330411,56.7838595 24.2554002,57.1701813 C24.9306626,57.5313156 25.4686844,58.0693374 25.8298187,58.7445998 C26.2161405,59.4669589 26.35,60.1601402 26.35,61.461245 L26.35,67.538755 C26.35,68.8398598 26.2161405,69.5330411 25.8298187,70.2554002 C25.4686844,70.9306626 24.9306626,71.4686844 24.2554002,71.8298187 C23.5330411,72.2161405 22.8398598,72.35 21.538755,72.35 L15.461245,72.35 C14.1601402,72.35 13.4669589,72.2161405 12.7445998,71.8298187 C12.0693374,71.4686844 11.5313156,70.9306626 11.1701813,70.2554002 C10.7838595,69.5330411 10.65,68.8398598 10.65,67.538755 L10.65,61.461245 C10.65,60.1601402 10.7838595,59.4669589 11.1701813,58.7445998 C11.5313156,58.0693374 12.0693374,57.5313156 12.7445998,57.1701813 C13.4669589,56.7838595 14.1601402,56.65 15.461245,56.65 Z" id="Rectangle-Copy-2" stroke="#97A1FF" stroke-width="2.7"></path>
                    <path d="M39.461245,56.65 L45.538755,56.65 C46.8398598,56.65 47.5330411,56.7838595 48.2554002,57.1701813 C48.9306626,57.5313156 49.4686844,58.0693374 49.8298187,58.7445998 C50.2161405,59.4669589 50.35,60.1601402 50.35,61.461245 L50.35,67.538755 C50.35,68.8398598 50.2161405,69.5330411 49.8298187,70.2554002 C49.4686844,70.9306626 48.9306626,71.4686844 48.2554002,71.8298187 C47.5330411,72.2161405 46.8398598,72.35 45.538755,72.35 L39.461245,72.35 C38.1601402,72.35 37.4669589,72.2161405 36.7445998,71.8298187 C36.0693374,71.4686844 35.5313156,70.9306626 35.1701813,70.2554002 C34.7838595,69.5330411 34.65,68.8398598 34.65,67.538755 L34.65,61.461245 C34.65,60.1601402 34.7838595,59.4669589 35.1701813,58.7445998 C35.5313156,58.0693374 36.0693374,57.5313156 36.7445998,57.1701813 C37.4669589,56.7838595 38.1601402,56.65 39.461245,56.65 Z" id="Rectangle-Copy-2" stroke="#97A1FF" stroke-width="2.7"></path>
                    <path d="M62.461245,56.65 L68.538755,56.65 C69.8398598,56.65 70.5330411,56.7838595 71.2554002,57.1701813 C71.9306626,57.5313156 72.4686844,58.0693374 72.8298187,58.7445998 C73.2161405,59.4669589 73.35,60.1601402 73.35,61.461245 L73.35,67.538755 C73.35,68.8398598 73.2161405,69.5330411 72.8298187,70.2554002 C72.4686844,70.9306626 71.9306626,71.4686844 71.2554002,71.8298187 C70.5330411,72.2161405 69.8398598,72.35 68.538755,72.35 L62.461245,72.35 C61.1601402,72.35 60.4669589,72.2161405 59.7445998,71.8298187 C59.0693374,71.4686844 58.5313156,70.9306626 58.1701813,70.2554002 C57.7838595,69.5330411 57.65,68.8398598 57.65,67.538755 L57.65,61.461245 C57.65,60.1601402 57.7838595,59.4669589 58.1701813,58.7445998 C58.5313156,58.0693374 59.0693374,57.5313156 59.7445998,57.1701813 C60.4669589,56.7838595 61.1601402,56.65 62.461245,56.65 Z" id="Rectangle-Copy-2" stroke="#97A1FF" stroke-width="2.7"></path>
                    <rect id="Rectangle" x="0" y="0" width="84" height="84"></rect>
                </g>
            </g>
        </g>
    </g>
</svg>