<?xml version="1.0" encoding="UTF-8"?>
<svg width="80px" height="92px" viewBox="0 0 80 92" version="1.1" xmlns="http://www.w3.org/2000/svg" xmlns:xlink="http://www.w3.org/1999/xlink">
    <!-- Generator: Sketch 61.2 (89653) - https://sketch.com -->
    <title>Group 2 Copy</title>
    <desc>Created with Sketch.</desc>
    <defs>
        <filter x="-20.8%" y="-20.8%" width="141.7%" height="141.7%" filterUnits="objectBoundingBox" id="filter-1">
            <feOffset dx="5" dy="5" in="SourceAlpha" result="shadowOffsetOuter1"></feOffset>
            <feGaussianBlur stdDeviation="2" in="shadowOffsetOuter1" result="shadowBlurOuter1"></feGaussianBlur>
            <feColorMatrix values="0 0 0 0 0   0 0 0 0 0   0 0 0 0 0  0 0 0 0.5 0" type="matrix" in="shadowBlurOuter1" result="shadowMatrixOuter1"></feColorMatrix>
            <feMerge>
                <feMergeNode in="shadowMatrixOuter1"></feMergeNode>
                <feMergeNode in="SourceGraphic"></feMergeNode>
            </feMerge>
        </filter>
    </defs>
    <g id="Page-1" stroke="none" stroke-width="1" fill="none" fill-rule="evenodd">
        <g id="alerts-desktop-final" transform="translate(-270.000000, -1486.000000)">
            <g id="Group-2-Copy" filter="url(#filter-1)" transform="translate(263.000000, 1486.000000)">
                <g id="Group" transform="translate(7.000000, 0.000000)" stroke-width="3">
                    <path d="M17.499876,80.3180138 L34.9918796,69.5029157 L35.4124371,69.4999554 L36.0627404,69.4954411 C54.6022978,69.1948505 69.5,54.0680637 69.5,35.5 C69.5,16.7223185 54.2776815,1.5 35.5,1.5 C16.7223185,1.5 1.5,16.7223185 1.5,35.5 C1.5,47.0793916 7.33150815,57.6642935 16.8242275,63.9162923 L17.4991404,64.3607965 L17.499876,80.3180138 Z" id="Path" stroke="#97A1FF"></path>
                    <path d="M35.72,25.94 C32.7127335,25.94 30.5,23.9674081 30.5,21.24 C30.5,18.4502242 32.618347,16.5 35.72,16.5 C38.7932398,16.5 40.94,18.4608204 40.94,21.24 C40.94,23.9674081 38.7272665,25.94 35.72,25.94 Z M36.88,55.94 L34.56,55.94 C32.4915729,55.94 31.14,54.5884271 31.14,52.52 L31.14,35.8 C31.14,33.7315729 32.4915729,32.38 34.56,32.38 L36.88,32.38 C38.9479633,32.38 40.34,33.7304833 40.34,35.8 L40.34,52.52 C40.34,54.5895167 38.9479633,55.94 36.88,55.94 Z" id="i" stroke="#FFFFFF" fill="#FFFFFF"></path>
                </g>
                <rect id="Rectangle-Copy-2" x="0" y="0" width="84" height="84"></rect>
            </g>
        </g>
    </g>
</svg>