<?xml version="1.0" encoding="UTF-8"?>
<svg width="76px" height="91px" viewBox="0 0 76 91" version="1.1" xmlns="http://www.w3.org/2000/svg" xmlns:xlink="http://www.w3.org/1999/xlink">
    <!-- Generator: Sketch 61.2 (89653) - https://sketch.com -->
    <title>Group 2 Copy</title>
    <desc>Created with Sketch.</desc>
    <defs>
        <filter x="-20.8%" y="-20.8%" width="141.7%" height="141.7%" filterUnits="objectBoundingBox" id="filter-1">
            <feOffset dx="5" dy="5" in="SourceAlpha" result="shadowOffsetOuter1"></feOffset>
            <feGaussianBlur stdDeviation="2" in="shadowOffsetOuter1" result="shadowBlurOuter1"></feGaussianBlur>
            <feColorMatrix values="0 0 0 0 0   0 0 0 0 0   0 0 0 0 0  0 0 0 0.5 0" type="matrix" in="shadowBlurOuter1" result="shadowMatrixOuter1"></feColorMatrix>
            <feMerge>
                <feMergeNode in="shadowMatrixOuter1"></feMergeNode>
                <feMergeNode in="SourceGraphic"></feMergeNode>
            </feMerge>
        </filter>
    </defs>
    <g id="Page-1" stroke="none" stroke-width="1" fill="none" fill-rule="evenodd">
        <g id="alerts-desktop-final" transform="translate(-687.000000, -1487.000000)">
            <g id="Group-2-Copy" filter="url(#filter-1)" transform="translate(678.000000, 1486.000000)">
                <g id="Group" transform="translate(11.000000, 2.601151)">
                    <path d="M22.8998656,19.4077744 L1.78483097,57.580812 C-1.88731736,64.219544 0.28849989,72.7105072 6.64465482,76.5459091 C8.66599212,77.7656152 10.9592433,78.4077744 13.2936675,78.4077744 L31.8003913,78.4077744 L49.706225,78.4077744 C52.0014173,78.4077744 54.2574977,77.7870062 56.2547858,76.6059157 C62.6426708,72.8284584 64.8891843,64.3576026 61.2725141,57.6857299 L40.5229066,19.4077744 L22.8998656,19.4077744 Z" id="Path-5" stroke="#97A1FF" stroke-width="3" stroke-linejoin="round"></path>
                    <path d="M22.8998656,19.4077744 L12.596819,2.42575834 C22.1902864,7.28264592 29.3988142,8.27813868 34.2224023,5.41223665 C39.0459904,2.54633462 44.6056577,0.742255736 50.9014043,0 L40.5229066,19.4077744 L22.8998656,19.4077744 Z" id="Path-6" stroke="#97A1FF" stroke-width="3" stroke-linejoin="round"></path>
                    <path d="M32.1392,68.0388489 C32.6592,68.0388489 32.9392,67.7588489 32.9392,67.2388489 L32.9392,64.5988489 C37.9392,64.1588489 41.8192,61.3988489 41.8192,56.5588489 C41.7392,53.1588489 39.6992,50.3988489 34.4192,48.6388489 L32.9392,48.1188489 L32.9392,42.0788489 C34.1792,42.3588489 35.0192,43.0788489 35.4992,44.2388489 C35.7792,44.8388489 36.1792,45.0388489 36.7792,44.8788489 L39.9792,43.9188489 C40.6192,43.7188489 40.8992,43.2788489 40.6192,42.6388489 C39.3792,39.4388489 36.7392,37.3588489 32.9392,36.9988489 L32.9392,34.1988489 C32.9392,33.6788489 32.6592,33.3988489 32.1392,33.3988489 L31.4592,33.3988489 C30.9392,33.3988489 30.6592,33.6788489 30.6592,34.1988489 L30.6592,36.9588489 C25.7792,37.3188489 22.0192,40.3188489 22.0192,44.9588489 C22.0592,49.1588489 26.1392,51.5988489 29.2592,52.5988489 L30.6592,53.1188489 L30.6592,59.6388489 C28.4992,59.4388489 27.0192,58.3188489 26.3392,56.7188489 C26.0592,56.1188489 25.6592,55.8388489 25.0592,55.9588489 L21.8192,56.7588489 C21.1792,56.9188489 20.8592,57.3588489 21.0592,57.9988489 C22.1392,61.8788489 25.6592,64.3988489 30.6592,64.6388489 L30.6592,67.2388489 C30.6592,67.7588489 30.9392,68.0388489 31.4592,68.0388489 L32.1392,68.0388489 Z M30.6592,47.2788489 L30.4192,47.1588489 C28.4592,46.3588489 28.1792,45.3988489 28.1792,44.5588489 C28.1792,43.1188489 29.2592,42.2788489 30.6592,41.9988489 L30.6592,47.2788489 Z M32.9392,59.5588489 L32.9392,53.9588489 L33.1792,54.0788489 C34.8192,54.7188489 35.6592,55.5988489 35.6592,56.7988489 C35.6592,58.2388489 34.6592,59.1988489 32.9392,59.5588489 Z" id="$" fill="#FFFFFF"></path>
                </g>
                <rect id="Rectangle-Copy-3" x="0" y="0" width="84" height="84"></rect>
            </g>
        </g>
    </g>
</svg>