<?xml version="1.0" encoding="UTF-8"?>
<svg width="71px" height="93px" viewBox="0 0 71 93" version="1.1" xmlns="http://www.w3.org/2000/svg" xmlns:xlink="http://www.w3.org/1999/xlink">
    <!-- Generator: Sketch 61.2 (89653) - https://sketch.com -->
    <title>Group 2 Copy</title>
    <desc>Created with Sketch.</desc>
    <defs>
        <filter x="-20.8%" y="-20.8%" width="141.7%" height="141.7%" filterUnits="objectBoundingBox" id="filter-1">
            <feOffset dx="5" dy="5" in="SourceAlpha" result="shadowOffsetOuter1"></feOffset>
            <feGaussianBlur stdDeviation="2" in="shadowOffsetOuter1" result="shadowBlurOuter1"></feGaussianBlur>
            <feColorMatrix values="0 0 0 0 0   0 0 0 0 0   0 0 0 0 0  0 0 0 0.5 0" type="matrix" in="shadowBlurOuter1" result="shadowMatrixOuter1"></feColorMatrix>
            <feMerge>
                <feMergeNode in="shadowMatrixOuter1"></feMergeNode>
                <feMergeNode in="SourceGraphic"></feMergeNode>
            </feMerge>
        </filter>
    </defs>
    <g id="Page-1" stroke="none" stroke-width="1" fill="none" fill-rule="evenodd">
        <g id="alerts-desktop-final" transform="translate(-689.000000, -1131.000000)">
            <g id="Group-2-Copy" filter="url(#filter-1)" transform="translate(678.000000, 1131.000000)">
                <g id="Group" transform="translate(11.000000, 11.000000)">
                    <path d="M23.7785644,57.2187598 L31,65.0025977 L38.3862205,57.2290793 C50.8249415,58.01753 60,60.7501331 60,64 C60,67.8659932 47.0162577,71 31,71 C14.9837423,71 2,67.8659932 2,64 C2,60.7357986 11.2561761,57.993434 23.7785644,57.2187598 Z" id="Combined-Shape" fill="#FFFFFF"></path>
                    <circle id="Oval" stroke="#97A1FF" stroke-width="3" cx="31" cy="16" r="14.5"></circle>
                    <path d="M62,64 C62,68.9705627 48.1208272,73 31,73 L29.9767255,72.9951894 C13.3295575,72.8384461 0,68.8711515 0,64 C0,59.9508047 9.21064233,56.5261689 21.8811063,55.3956858 L24.5448793,58.2014832 C18.9735622,58.5546445 13.9030596,59.3595792 9.91612037,60.5170776 C7.37239668,61.2555781 5.3919559,62.1066408 4.13387161,62.9701895 C3.68181767,63.2804791 3.35749771,63.5692465 3.15919762,63.8129199 L3.021,64 L3.08192238,64.0854783 C3.26744168,64.3486877 3.61723853,64.6751938 4.13387161,65.0298105 C5.3919559,65.8933592 7.37239668,66.7444219 9.91612037,67.4829224 C15.3997113,69.0749326 22.9330727,70 31,70 C39.0669273,70 46.6002887,69.0749326 52.0838796,67.4829224 C54.6276033,66.7444219 56.6080441,65.8933592 57.8661284,65.0298105 C58.3181823,64.7195209 58.6425023,64.4307535 58.8408024,64.1870801 L58.978,64 L58.9180776,63.9145217 C58.7325583,63.6513123 58.3827615,63.3248062 57.8661284,62.9701895 C56.6080441,62.1066408 54.6276033,61.2555781 52.0838796,60.5170776 C48.0821599,59.355288 42.9888277,58.5486812 37.3931373,58.197574 L40.0327035,55.3880359 C52.7475662,56.5106511 62,59.9416288 62,64 Z" id="Combined-Shape" fill="#FFFFFF" fill-rule="nonzero"></path>
                </g>
                <path d="M42,75.9045503 C42.0871323,75.8175298 42.1769647,75.7275936 42.2694366,75.6347835 C43.3202664,74.5801101 44.4920666,73.3755767 45.7544792,72.0421455 C49.3616918,68.2320045 52.968795,64.1563594 56.3322502,59.9844937 C59.7186488,55.78417 62.6686533,51.7161222 65.0556322,47.8716839 C69.2290449,41.1500378 71.5,35.3974624 71.5,31 C71.5,14.7075999 58.2924001,1.5 42,1.5 C25.7075999,1.5 12.5,14.7075999 12.5,31 C12.5,35.3974624 14.7709551,41.1500378 18.9443678,47.8716839 C21.3313467,51.7161222 24.2813512,55.78417 27.6677498,59.9844937 C31.031205,64.1563594 34.6383082,68.2320045 38.2455208,72.0421455 C39.5079334,73.3755767 40.6797336,74.5801101 41.7305634,75.6347835 C41.8230353,75.7275936 41.9128677,75.8175298 42,75.9045503 Z" id="Oval" stroke="#97A1FF" stroke-width="3"></path>
                <rect id="Rectangle-Copy" x="0" y="0" width="84" height="84"></rect>
            </g>
        </g>
    </g>
</svg>