<?xml version="1.0" encoding="UTF-8"?>
<svg width="15px" height="33px" viewBox="0 0 15 33" version="1.1" xmlns="http://www.w3.org/2000/svg" xmlns:xlink="http://www.w3.org/1999/xlink">
    <!-- Generator: Sketch 61.2 (89653) - https://sketch.com -->
    <title>!</title>
    <desc>Created with Sketch.</desc>
    <g id="Page-1" stroke="none" stroke-width="1" fill="none" fill-rule="evenodd">
        <g id="Group-30-Copy-2" transform="translate(-57.000000, -212.000000)" fill-rule="nonzero" stroke="#97A1FF" stroke-width="3.59999996">
            <path d="M65.1413613,234.150211 L63.895288,234.150211 C62.1245121,234.150211 60.8363725,233.071644 60.60145,231.261956 L59.3187275,218.322434 L59.3099477,218.144866 L59.3099477,217.336146 C59.3099477,215.481084 60.6452267,214.2 62.5026178,214.2 L66.4973822,214.2 C68.3855727,214.2 69.6900523,215.476075 69.6900523,217.336146 L69.6900523,218.144866 L69.6812725,218.322434 L68.3922442,231.316941 C68.165153,233.059935 66.886705,234.150211 65.1413613,234.150211 Z M64.4816754,242.8 C61.5241196,242.8 59.2,240.751895 59.2,237.940928 C59.2,235.129822 61.5286449,233.011533 64.4816754,233.011533 C67.4102407,233.011533 69.8,235.138157 69.8,237.940928 C69.8,240.744363 67.4154956,242.8 64.4816754,242.8 Z" id="!"></path>
        </g>
    </g>
</svg>