<?xml version="1.0" encoding="UTF-8"?>
<svg width="30px" height="33px" viewBox="0 0 30 33" version="1.1" xmlns="http://www.w3.org/2000/svg" xmlns:xlink="http://www.w3.org/1999/xlink">
    <!-- Generator: Sketch 61.2 (89653) - https://sketch.com -->
    <title>Dollar-1</title>
    <desc>Created with Sketch.</desc>
    <g id="Page-1" stroke="none" stroke-width="1" fill="none" fill-rule="evenodd">
        <g id="Group-30-Copy-2" transform="translate(-398.000000, -213.000000)" fill-rule="nonzero" stroke="#97A1FF" stroke-width="3.59999996">
            <path d="M417.781815,225.75474 C422.115221,225.69568 425.717539,229.021876 425.799659,233.31112 C425.717446,237.535154 422.107079,240.864018 417.794824,240.797446 L416.697283,240.797446 C416.498745,241.844318 415.840564,242.765954 414.881651,243.307091 C413.717048,243.964303 412.281079,243.964303 411.116476,243.307091 C410.147914,242.760509 409.486166,241.82573 409.294485,240.796979 L405.39319,240.795936 C403.356308,240.712476 401.718265,239.080261 401.718265,237.055762 C401.718265,235.031262 403.356308,233.399047 405.466882,233.314077 L409.238992,233.314077 L409.238992,233.245021 L408.306856,233.244897 C403.950117,233.332353 400.307956,230.009281 400.200577,225.678334 C400.307956,221.438534 403.950117,218.115462 408.27073,218.202554 L409.300844,218.202554 C409.499382,217.155682 410.157563,216.234046 411.116476,215.692909 C412.281079,215.035697 413.717048,215.035697 414.881651,215.692909 C415.850101,216.239428 416.511807,217.174052 416.703575,218.202661 L420.570136,218.202898 C422.646603,218.243449 424.330734,219.912578 424.293838,221.912064 C424.330734,223.975899 422.646603,225.645028 420.534991,225.685923 L416.759135,225.685923 L416.759135,225.75474 L417.781815,225.75474 Z M416.759135,233.306926 L414.959135,233.306926 L416.759135,235.106926 L416.759135,233.306926 Z M416.759135,233.238108 L416.759135,231.438108 L414.959135,233.238108 L416.759135,233.238108 Z M418.125025,233.27262 C418.222589,233.317811 418.286112,233.39603 418.294968,233.474468 L420.051932,233.276093 L420.083603,233.276093 L420.067896,233.27429 L420.083603,233.272517 L420.05244,233.272517 L418.295337,233.070897 C418.286335,233.149351 418.222675,233.22752 418.125025,233.27262 Z M409.238992,225.685923 L411.038992,225.685923 L409.238992,223.885923 L409.238992,225.685923 Z M409.238992,225.75474 L409.238992,227.55474 L411.038992,225.75474 L409.238992,225.75474 Z M407.900488,225.720331 C407.788396,225.670208 407.713405,225.580311 407.701218,225.48706 L405.916397,225.720331 L407.701218,225.953603 C407.713405,225.860352 407.788396,225.770455 407.900488,225.720331 Z" id="Dollar-1"></path>
        </g>
    </g>
</svg>