<svg width="81" height="82" viewBox="0 0 81 82" fill="none" xmlns="http://www.w3.org/2000/svg">
    <ellipse cx="40.5" cy="41" rx="40.5" ry="41" fill="black"/>
    <mask id="path-2-outside-1" maskUnits="userSpaceOnUse" x="24.0129" y="24.4224" width="33" height="32" fill="black">
        <rect fill="white" x="24.0129" y="24.4224" width="33" height="32"/>
        <path fill-rule="evenodd" clip-rule="evenodd" d="M50.0752 41.5288L52.849 44.7508C53.19 45.0909 53.2923 45.603 53.1082 46.048C52.9242 46.493 52.49 46.7831 52.0084 46.783H29.2024C28.7214 46.7821 28.288 46.4921 28.1038 46.0477C27.9196 45.6033 28.0207 45.0917 28.36 44.7508L31.0834 41.5288C31.5298 41.0825 31.7804 40.477 31.78 39.8458V36.7552C32.0181 31.9636 36.0631 28.2531 40.8574 28.4284C45.5282 28.6502 49.2409 32.4304 49.3786 37.1044V39.8458C49.3782 40.477 49.6288 41.0825 50.0752 41.5288ZM40.6 52.7752C38.392 52.9029 36.4301 51.3773 36.01 49.2058H45.1918C44.7709 51.3775 42.8085 52.903 40.6 52.7752Z"/>
    </mask>
    <path d="M52.849 44.7508L50.1207 47.0995L50.2099 47.2031L50.3067 47.2997L52.849 44.7508ZM50.0752 41.5288L52.8035 39.18L52.7157 39.0781L52.6205 38.983L50.0752 41.5288ZM52.0084 46.783L52.0095 43.183H52.0084V46.783ZM29.2024 46.783L29.1959 50.383H29.2024V46.783ZM28.1038 46.0477L24.7782 47.4262L28.1038 46.0477ZM28.36 44.7508L30.9116 47.2904L31.0149 47.1866L31.1094 47.0747L28.36 44.7508ZM31.0834 41.5288L28.5381 38.983L28.4314 39.0896L28.334 39.2048L31.0834 41.5288ZM31.78 39.8458H28.18L28.18 39.848L31.78 39.8458ZM31.78 36.7552L28.1844 36.5765L28.18 36.6658V36.7552H31.78ZM40.8574 28.4284L41.0282 24.8324L41.0086 24.8315L40.989 24.8308L40.8574 28.4284ZM49.3786 37.1044H52.9786V37.0514L52.977 36.9984L49.3786 37.1044ZM49.3786 39.8458L52.9786 39.848V39.8458H49.3786ZM36.01 49.2058V45.6058H31.6468L32.4755 49.8895L36.01 49.2058ZM40.6 52.7752L40.8081 49.1812L40.6001 49.1692L40.3921 49.1812L40.6 52.7752ZM45.1918 49.2058L48.726 49.8907L49.5565 45.6058H45.1918V49.2058ZM55.5773 42.402L52.8035 39.18L47.3469 43.8775L50.1207 47.0995L55.5773 42.402ZM56.4349 47.424C57.1759 45.6325 56.7639 43.571 55.3913 42.2019L50.3067 47.2997C49.616 46.6107 49.4087 45.5734 49.7816 44.6719L56.4349 47.424ZM52.0073 50.383C53.946 50.3836 55.6938 49.2155 56.4349 47.424L49.7816 44.6719C50.1545 43.7705 51.034 43.1827 52.0095 43.183L52.0073 50.383ZM29.2024 50.383H52.0084V43.183H29.2024V50.383ZM24.7782 47.4262C25.5189 49.2132 27.2615 50.3795 29.1959 50.383L29.209 43.183C30.1812 43.1848 31.0571 43.771 31.4294 44.6691L24.7782 47.4262ZM25.8084 42.2112C24.4438 43.5822 24.0375 45.6393 24.7782 47.4262L31.4294 44.6691C31.8017 45.5673 31.5975 46.6013 30.9116 47.2904L25.8084 42.2112ZM28.334 39.2048L25.6106 42.4268L31.1094 47.0747L33.8328 43.8527L28.334 39.2048ZM28.18 39.848C28.1798 39.5236 28.3086 39.2124 28.5381 38.983L33.6287 44.0746C34.751 42.9526 35.381 41.4304 35.38 39.8435L28.18 39.848ZM28.18 36.7552V39.8458H35.38V36.7552H28.18ZM40.989 24.8308C34.2261 24.5835 28.5203 29.8175 28.1844 36.5765L35.3756 36.9339C35.5159 34.1096 37.9 31.9227 40.7258 32.026L40.989 24.8308ZM52.977 36.9984C52.784 30.4442 47.5778 25.1435 41.0282 24.8324L40.6866 32.0243C43.4786 32.1569 45.6979 34.4165 45.7802 37.2104L52.977 36.9984ZM52.9786 39.8458V37.1044H45.7786V39.8458H52.9786ZM52.6205 38.983C52.85 39.2124 52.9788 39.5236 52.9786 39.848L45.7786 39.8435C45.7776 41.4304 46.4076 42.9526 47.5299 44.0746L52.6205 38.983ZM32.4755 49.8895C33.2381 53.8315 36.7996 56.601 40.8079 56.3692L40.3921 49.1812C39.9844 49.2048 39.622 48.923 39.5445 48.522L32.4755 49.8895ZM45.1918 45.6058H36.01V52.8058H45.1918V45.6058ZM40.3919 56.3692C44.4003 56.6012 47.9621 53.8324 48.726 49.8907L41.6576 48.5209C41.5797 48.9226 41.2166 49.2049 40.8081 49.1812L40.3919 56.3692Z" fill="#97A1FF" mask="url(#path-2-outside-1)"/>
</svg>
