<svg width="81" height="82" viewBox="0 0 81 82" fill="none" xmlns="http://www.w3.org/2000/svg">
    <ellipse cx="40.5" cy="41" rx="40.5" ry="41" fill="black"/>
    <mask id="path-2-outside-1" maskUnits="userSpaceOnUse" x="25.1554" y="24" width="30" height="33" fill="black">
        <rect fill="white" x="25.1554" y="24" width="30" height="33"/>
        <path fill-rule="evenodd" clip-rule="evenodd" d="M36.1016 47.7172H49.8284C50.2321 47.7182 50.6196 47.5586 50.9056 47.2736C51.1916 46.9887 51.3525 46.6017 51.353 46.198V29.5156C51.352 29.1124 51.1908 28.7261 50.9049 28.4418C50.6189 28.1575 50.2316 27.9986 49.8284 28H36.1016C35.6979 27.9986 35.3102 28.1577 35.0239 28.4423C34.7376 28.7269 34.5761 29.1137 34.5752 29.5174V46.1998C34.5761 46.6035 34.7376 46.9903 35.0239 47.2749C35.3102 47.5595 35.6979 47.7186 36.1016 47.7172ZM43.9643 52.7552C44.2489 52.4709 44.4092 52.0855 44.4104 51.6834L44.4104 51.6844V51.6808L44.4104 51.6834C44.4059 50.8452 43.7241 50.1686 42.8858 50.1706H32.9354C32.5378 50.1706 32.2154 49.8483 32.2154 49.4506V36.5176C32.2154 35.6726 31.5304 34.9876 30.6854 34.9876C29.8404 34.9876 29.1554 35.6726 29.1554 36.5176V51.6736C29.1574 52.5151 29.8385 53.197 30.68 53.2H42.8858C43.2901 53.201 43.6782 53.0409 43.9643 52.7552ZM40.6772 32.5504H45.26C45.8142 32.5313 46.3348 32.8161 46.6176 33.2932C46.9003 33.7702 46.9003 34.3636 46.6176 34.8406C46.3348 35.3177 45.8142 35.6025 45.26 35.5834H40.6772C40.1229 35.6025 39.6024 35.3177 39.3196 34.8406C39.0368 34.3636 39.0368 33.7702 39.3196 33.2932C39.6024 32.8161 40.1229 32.5313 40.6772 32.5504ZM45.26 38.2348H40.6772C40.1229 38.2157 39.6024 38.5005 39.3196 38.9776C39.0368 39.4546 39.0368 40.048 39.3196 40.525C39.6024 41.0021 40.1229 41.2869 40.6772 41.2678H45.26C45.8142 41.2869 46.3348 41.0021 46.6176 40.525C46.9003 40.048 46.9003 39.4546 46.6176 38.9776C46.3348 38.5005 45.8142 38.2157 45.26 38.2348Z"/>
    </mask>
    <path d="M49.8284 47.7172L49.8369 44.1172H49.8284V47.7172ZM36.1016 47.7172V44.1172L36.0888 44.1172L36.1016 47.7172ZM51.353 46.198L54.953 46.2023V46.198H51.353ZM51.353 29.5156H54.953L54.953 29.5071L51.353 29.5156ZM50.9049 28.4418L48.3668 30.9949L50.9049 28.4418ZM49.8284 28V31.6L49.8412 31.6L49.8284 28ZM36.1016 28L36.0888 31.6H36.1016V28ZM35.0239 28.4423L37.5619 30.9954L37.5619 30.9954L35.0239 28.4423ZM34.5752 29.5174L30.9752 29.5089V29.5174H34.5752ZM34.5752 46.1998H30.9752L30.9752 46.2083L34.5752 46.1998ZM35.0239 47.2749L37.5619 44.7218L37.5619 44.7218L35.0239 47.2749ZM43.9643 52.7552L41.4202 50.2081L41.4202 50.2081L43.9643 52.7552ZM44.4104 51.6844L40.8104 51.7011L48.0104 51.6844H44.4104ZM44.4104 51.6808H48.0104L40.8104 51.6741L44.4104 51.6808ZM42.8858 50.1706V53.7706L42.8944 53.7706L42.8858 50.1706ZM29.1554 51.6736H25.5554L25.5554 51.6821L29.1554 51.6736ZM30.68 53.2L30.6673 56.8H30.68V53.2ZM42.8858 53.2L42.8943 49.6H42.8858V53.2ZM45.26 32.5504V36.1504H45.322L45.384 36.1483L45.26 32.5504ZM40.6772 32.5504L40.5532 36.1483L40.6152 36.1504H40.6772V32.5504ZM46.6176 33.2932L43.5207 35.1288L43.5207 35.1289L46.6176 33.2932ZM46.6176 34.8406L49.7144 36.6763V36.6763L46.6176 34.8406ZM45.26 35.5834L45.384 31.9855L45.322 31.9834H45.26V35.5834ZM40.6772 35.5834V31.9834H40.6152L40.5532 31.9855L40.6772 35.5834ZM39.3196 34.8406L42.4165 33.005L42.4165 33.005L39.3196 34.8406ZM39.3196 33.2932L42.4165 35.1289L42.4165 35.1288L39.3196 33.2932ZM40.6772 38.2348L40.5532 41.8327L40.6152 41.8348H40.6772V38.2348ZM45.26 38.2348V41.8348H45.322L45.384 41.8327L45.26 38.2348ZM39.3196 38.9776L42.4165 40.8132L42.4165 40.8132L39.3196 38.9776ZM39.3196 40.525L42.4165 38.6894L42.4165 38.6894L39.3196 40.525ZM40.6772 41.2678V37.6678H40.6152L40.5532 37.6699L40.6772 41.2678ZM45.26 41.2678L45.384 37.6699L45.322 37.6678H45.26V41.2678ZM49.8284 44.1172H36.1016V51.3172H49.8284V44.1172ZM48.3645 44.7235C48.7554 44.334 49.2851 44.1159 49.8369 44.1172L49.8199 51.3172C51.1791 51.3204 52.4838 50.7831 53.4467 49.8237L48.3645 44.7235ZM47.753 46.1938C47.7536 45.642 47.9736 45.113 48.3645 44.7235L53.4467 49.8237C54.4095 48.8643 54.9514 47.5615 54.953 46.2023L47.753 46.1938ZM47.753 29.5156V46.198H54.953V29.5156H47.753ZM48.3668 30.9949C47.9751 30.6055 47.7543 30.0764 47.753 29.5241L54.953 29.5071C54.9498 28.1484 54.4065 26.8466 53.4429 25.8887L48.3668 30.9949ZM49.8412 31.6C49.2889 31.602 48.7585 31.3843 48.3668 30.9949L53.4429 25.8887C52.4793 24.9307 51.1743 24.3952 49.8156 24.4L49.8412 31.6ZM36.1016 31.6H49.8284V24.4H36.1016V31.6ZM37.5619 30.9954C37.1706 31.3845 36.6406 31.6019 36.0888 31.6L36.1144 24.4C34.7552 24.3952 33.4498 24.9309 32.4858 25.8892L37.5619 30.9954ZM38.1752 29.5259C38.1739 30.0777 37.9533 30.6064 37.5619 30.9954L32.4858 25.8892C31.5219 26.8475 30.9784 28.1497 30.9752 29.5089L38.1752 29.5259ZM38.1752 46.1998V29.5174H30.9752V46.1998H38.1752ZM37.5619 44.7218C37.9533 45.1108 38.1739 45.6395 38.1752 46.1913L30.9752 46.2083C30.9784 47.5675 31.5219 48.8697 32.4858 49.828L37.5619 44.7218ZM36.0888 44.1172C36.6406 44.1153 37.1706 44.3328 37.5619 44.7218L32.4858 49.828C33.4498 50.7863 34.7552 51.322 36.1144 51.3172L36.0888 44.1172ZM40.8104 51.6731C40.812 51.1234 41.0312 50.5967 41.4202 50.2081L46.5083 55.3022C47.4666 54.3451 48.0065 53.0476 48.0104 51.6937L40.8104 51.6731ZM48.0104 51.6677L48.0104 51.6667L40.8104 51.7001L40.8104 51.7011L48.0104 51.6677ZM40.8104 51.6808V51.6844H48.0104V51.6808H40.8104ZM48.0104 51.6901L48.0104 51.6875L40.8104 51.6741L40.8104 51.6767L48.0104 51.6901ZM42.8944 53.7706C41.7485 53.7733 40.8166 52.8485 40.8104 51.7028L48.0103 51.664C47.9951 48.842 45.6996 46.5639 42.8772 46.5706L42.8944 53.7706ZM32.9354 53.7706H42.8858V46.5706H32.9354V53.7706ZM28.6154 49.4506C28.6154 51.8365 30.5495 53.7706 32.9354 53.7706V46.5706C34.526 46.5706 35.8154 47.86 35.8154 49.4506H28.6154ZM28.6154 36.5176V49.4506H35.8154V36.5176H28.6154ZM30.6854 38.5876C29.5422 38.5876 28.6154 37.6608 28.6154 36.5176H35.8154C35.8154 33.6844 33.5186 31.3876 30.6854 31.3876V38.5876ZM32.7554 36.5176C32.7554 37.6608 31.8286 38.5876 30.6854 38.5876V31.3876C27.8522 31.3876 25.5554 33.6844 25.5554 36.5176H32.7554ZM32.7554 51.6736V36.5176H25.5554V51.6736H32.7554ZM30.6927 49.6C31.8312 49.604 32.7527 50.5267 32.7554 51.6652L25.5554 51.6821C25.562 54.5035 27.8459 56.79 30.6673 56.8L30.6927 49.6ZM42.8858 49.6H30.68V56.8H42.8858V49.6ZM41.4202 50.2081C41.8112 49.8175 42.3417 49.5987 42.8943 49.6L42.8773 56.8C44.2386 56.8032 45.5452 56.2643 46.5084 55.3022L41.4202 50.2081ZM45.26 28.9504H40.6772V36.1504H45.26V28.9504ZM49.7144 31.4575C48.7607 29.8486 47.0052 28.8881 45.136 28.9525L45.384 36.1483C44.6233 36.1745 43.9089 35.7836 43.5207 35.1288L49.7144 31.4575ZM49.7144 36.6763C50.6681 35.0674 50.6681 33.0664 49.7144 31.4575L43.5207 35.1289C43.1326 34.4741 43.1326 33.6597 43.5207 33.005L49.7144 36.6763ZM45.136 39.1813C47.0052 39.2457 48.7607 38.2852 49.7144 36.6763L43.5207 33.005C43.9089 32.3502 44.6233 31.9593 45.384 31.9855L45.136 39.1813ZM40.6772 39.1834H45.26V31.9834H40.6772V39.1834ZM36.2228 36.6763C37.1765 38.2852 38.932 39.2457 40.8012 39.1813L40.5532 31.9855C41.3139 31.9593 42.0283 32.3502 42.4165 33.005L36.2228 36.6763ZM36.2228 31.4575C35.2691 33.0664 35.2691 35.0674 36.2228 36.6763L42.4165 33.005C42.8046 33.6597 42.8046 34.4741 42.4165 35.1289L36.2228 31.4575ZM40.8012 28.9525C38.932 28.8881 37.1765 29.8486 36.2228 31.4575L42.4165 35.1288C42.0283 35.7836 41.3139 36.1745 40.5532 36.1483L40.8012 28.9525ZM40.6772 41.8348H45.26V34.6348H40.6772V41.8348ZM42.4165 40.8132C42.0283 41.468 41.3139 41.8589 40.5532 41.8327L40.8012 34.6369C38.932 34.5725 37.1765 35.533 36.2228 37.1419L42.4165 40.8132ZM42.4165 38.6894C42.8046 39.3441 42.8046 40.1585 42.4165 40.8132L36.2228 37.1419C35.2691 38.7508 35.2691 40.7518 36.2228 42.3607L42.4165 38.6894ZM40.5532 37.6699C41.3139 37.6437 42.0283 38.0346 42.4165 38.6894L36.2228 42.3607C37.1765 43.9696 38.932 44.9301 40.8012 44.8657L40.5532 37.6699ZM45.26 37.6678H40.6772V44.8678H45.26V37.6678ZM43.5207 38.6894C43.9089 38.0346 44.6233 37.6437 45.384 37.6699L45.136 44.8657C47.0052 44.9301 48.7607 43.9696 49.7144 42.3607L43.5207 38.6894ZM43.5207 40.8132C43.1326 40.1585 43.1326 39.3441 43.5207 38.6894L49.7144 42.3607C50.6681 40.7518 50.6681 38.7508 49.7144 37.1419L43.5207 40.8132ZM45.384 41.8327C44.6233 41.8589 43.9089 41.468 43.5207 40.8132L49.7144 37.1419C48.7607 35.533 47.0052 34.5725 45.136 34.6369L45.384 41.8327Z" fill="#97A1FF" mask="url(#path-2-outside-1)"/>
</svg>
