<?xml version="1.0" encoding="UTF-8"?>
<svg width="30px" height="33px" viewBox="0 0 30 33" version="1.1" xmlns="http://www.w3.org/2000/svg" xmlns:xlink="http://www.w3.org/1999/xlink">
    <!-- Generator: Sketch 61.2 (89653) - https://sketch.com -->
    <title>clone</title>
    <desc>Created with Sketch.</desc>
    <g id="Page-1" stroke="none" stroke-width="1" fill="none" fill-rule="evenodd">
        <g id="Group-30-Copy-2" transform="translate(-1093.000000, -212.000000)" fill-rule="nonzero" stroke="#97A1FF" stroke-width="3.59999996">
            <g id="clone" transform="translate(1097.000000, 216.000000)">
                <path d="M20.8266955,21.5172096 L7.10795268,21.5171984 C6.2265039,21.5203093 5.37997187,21.1728825 4.75484792,20.5514444 C4.12971415,19.9299966 3.77728579,19.0855167 3.77520002,18.1998 L3.77520503,1.51315101 C3.77728579,0.6316833 4.12971415,-0.212796601 4.75484792,-0.834244441 C5.37997185,-1.4556825 6.22650387,-1.80310926 7.1016,-1.80000961 L20.8220398,-1.79999837 C21.7030116,-1.80311124 22.549087,-1.45587571 23.1738748,-0.834776095 C23.7986725,-0.213666694 24.1509129,0.630355227 24.153,1.5156 L24.1529987,18.2001251 C24.151958,19.0815915 23.8005289,19.9264838 23.1761329,20.5486683 C22.5523403,21.1702514 21.7072387,21.5186077 20.8266955,21.5172096 Z M5.01539998,20.3706006 L13.8815195,20.3706051 C15.7123296,20.3662513 17.2012753,21.8443794 17.210377,23.6750696 L17.2103998,23.6750695 C17.2114447,24.5578962 16.8609371,25.4048081 16.2363152,26.0286925 C15.6116966,26.6525737 14.7643769,27.0020801 13.8858,27.0000042 L1.67364288,26.999993 C-0.157816363,26.9935248 -1.64029707,25.5092909 -1.64459998,23.6736 L-1.64459998,8.5176 C-1.64459998,6.67849179 -0.153708206,5.18760002 1.6854,5.18760002 C3.52450821,5.18760002 5.01539998,6.67849179 5.01539998,8.5176 L5.01539998,20.3706006 Z M17.210377,23.6750696 C17.2103783,23.6753404 17.2103796,23.6756112 17.2103809,23.6758821 L15.4104011,23.6844 L13.6104011,23.6844 L13.6104011,23.6772 L17.210377,23.6750696 Z M16.2540942,6.35039998 L16.26,6.35039998 C16.2581415,6.35051216 16.2561699,6.35051156 16.2540943,6.35039998 Z M16.2540943,6.35039998 C16.2101143,6.34803573 16.1194465,6.29584515 16.0691539,6.2110005 C16.0164878,6.1221517 16.0164878,6.0116483 16.0691539,5.9227995 C16.1185067,5.83954034 16.2067398,5.78772624 16.3025881,5.78446318 L11.6831312,5.78340138 C11.7271204,5.78578426 11.8177631,5.8379711 11.8680461,5.9227995 C11.9207122,6.0116483 11.9207122,6.1221517 11.8680461,6.2110005 C11.8170452,6.29704005 11.7245239,6.3494993 11.6249852,6.34950066 L11.6772,6.35039998 L16.2540942,6.35039998 Z M16.2540942,12.0348 L16.26,12.0348 C16.2581415,12.0349122 16.2561699,12.0349116 16.2540943,12.0348 Z M16.2540943,12.0348 C16.2101143,12.0324357 16.1194465,11.9802451 16.0691539,11.8954005 C16.0164878,11.8065517 16.0164878,11.6960483 16.0691539,11.6071995 C16.1185067,11.5239403 16.2067398,11.4721262 16.3025881,11.4688632 L11.6831312,11.4678014 C11.7271204,11.4701843 11.8177631,11.5223711 11.8680461,11.6071995 C11.9207122,11.6960483 11.9207122,11.8065517 11.8680461,11.8954005 C11.8170452,11.9814401 11.7245239,12.0338993 11.6249852,12.0339007 L11.6772,12.0348 L16.2540942,12.0348 Z" id="Clone"></path>
            </g>
        </g>
    </g>
</svg>