<?xml version="1.0" encoding="UTF-8"?>
<svg width="30px" height="33px" viewBox="0 0 30 33" version="1.1" xmlns="http://www.w3.org/2000/svg" xmlns:xlink="http://www.w3.org/1999/xlink">
    <!-- Generator: Sketch 61.2 (89653) - https://sketch.com -->
    <title>content</title>
    <desc>Created with Sketch.</desc>
    <g id="Page-1" stroke="none" stroke-width="1" fill="none" fill-rule="evenodd">
        <g id="Group-30-Copy-2" transform="translate(-746.000000, -212.000000)" fill-rule="nonzero" stroke="#97A1FF" stroke-width="3.59999996">
            <g id="content" transform="translate(750.000000, 216.000000)">
                <path d="M20.0571429,-1.79999998 C21.9117537,-1.79999998 23.4,-0.280748598 23.4,1.575 L23.4,23.625 C23.4,25.4807486 21.9117537,27 20.0571429,27 L1.54285714,27 C-0.311753728,27 -1.79999998,25.4807486 -1.79999998,23.625 L-1.79999998,1.575 C-1.79999998,-0.280748598 -0.311753728,-1.79999998 1.54285714,-1.79999998 L20.0571429,-1.79999998 Z M13.8857143,12.375 L7.71428571,12.375 C7.86470364,12.375 7.97142855,12.4839484 7.97142855,12.6 C7.97142855,12.7160516 7.86470364,12.825 7.71428571,12.825 L13.8857143,12.825 C13.7352964,12.825 13.6285714,12.7160516 13.6285714,12.6 C13.6285714,12.4839484 13.7352964,12.375 13.8857143,12.375 Z M13.8857143,6.07500002 L7.71428571,6.07500002 C7.86470364,6.07500002 7.97142855,6.18394836 7.97142855,6.3 C7.97142855,6.41605164 7.86470364,6.52499998 7.71428571,6.52499998 L13.8857143,6.52499998 C13.7352964,6.52499998 13.6285714,6.41605164 13.6285714,6.3 C13.6285714,6.18394836 13.7352964,6.07500002 13.8857143,6.07500002 Z M13.8857143,18.675 L7.71428571,18.675 C7.86470364,18.675 7.97142855,18.7839484 7.97142855,18.9 C7.97142855,19.0160516 7.86470364,19.125 7.71428571,19.125 L13.8857143,19.125 C13.7352964,19.125 13.6285714,19.0160516 13.6285714,18.9 C13.6285714,18.7839484 13.7352964,18.675 13.8857143,18.675 Z" id="Content"></path>
            </g>
        </g>
    </g>
</svg>