<svg width="81" height="82" viewBox="0 0 81 82" fill="none" xmlns="http://www.w3.org/2000/svg">
    <ellipse cx="40.5" cy="41" rx="40.5" ry="41" fill="black"/>
    <mask id="path-2-outside-1" maskUnits="userSpaceOnUse" x="26" y="25" width="30" height="33" fill="black">
        <rect fill="white" x="26" y="25" width="30" height="33"/>
        <path fill-rule="evenodd" clip-rule="evenodd" d="M45.7948 39.5547H42.9591V35.8859H48.535C49.6369 35.8644 50.5129 34.9961 50.4941 33.9442C50.5129 32.8923 49.6369 32.0241 48.535 32.0026H42.9591V30.9298C42.9812 30.2475 42.6126 29.6079 41.997 29.2605C41.3815 28.9132 40.6167 28.9132 40.0011 29.2605C39.3856 29.6079 39.0169 30.2475 39.039 30.9298V32.0026H36.2707C32.8861 31.9346 30.0818 34.4932 30 37.7239C30.0818 40.9546 32.8861 43.5132 36.2707 43.4453H39.039V47.1141H33.4669C32.3774 47.1587 31.5183 48.0148 31.5183 49.0558C31.5183 50.0967 32.3774 50.9528 33.4669 50.9974H39.039V52.0702C39.0169 52.7525 39.3856 53.3921 40.0011 53.7395C40.6167 54.0868 41.3815 54.0868 41.997 53.7395C42.6126 53.3921 42.9812 52.7525 42.9591 52.0702V50.9974H45.7948C49.1618 51.0493 51.9374 48.49 52 45.2761C51.9374 42.0622 49.1618 39.5029 45.7948 39.5547ZM48.0836 45.2761C47.9577 46.3732 46.9484 47.1805 45.7948 47.1069H42.9591V43.4381H45.7948C46.9497 43.3646 47.9596 44.174 48.0836 45.2725V45.2761ZM39.039 35.8859H36.2707C35.0987 35.799 34.0619 36.6067 33.9164 37.7203C34.0619 38.8339 35.0987 39.6417 36.2707 39.5547H39.039V35.8859Z"/>
    </mask>
    <path d="M42.9591 39.5547H39.3591V43.1547H42.9591V39.5547ZM45.7948 39.5547V43.1547H45.8225L45.8502 43.1543L45.7948 39.5547ZM42.9591 35.8859V32.2859H39.3591V35.8859H42.9591ZM48.535 35.8859V39.4859H48.5701L48.6053 39.4852L48.535 35.8859ZM50.4941 33.9442L46.8947 33.8799L46.8936 33.9442L46.8947 34.0086L50.4941 33.9442ZM48.535 32.0026L48.6053 28.4032L48.5701 28.4026H48.535V32.0026ZM42.9591 32.0026H39.3591V35.6026H42.9591V32.0026ZM42.9591 30.9298L39.361 30.8133L39.3591 30.8715V30.9298H42.9591ZM39.039 30.9298H42.639V30.8715L42.6371 30.8133L39.039 30.9298ZM39.039 32.0026V35.6026H42.639V32.0026H39.039ZM36.2707 32.0026L36.1985 35.6018L36.2346 35.6026H36.2707V32.0026ZM30 37.7239L26.4012 37.6328L26.3988 37.7239L26.4012 37.8151L30 37.7239ZM36.2707 43.4453V39.8453H36.2346L36.1985 39.846L36.2707 43.4453ZM39.039 43.4453H42.639V39.8453H39.039V43.4453ZM39.039 47.1141V50.7141H42.639V47.1141H39.039ZM33.4669 47.1141V43.5141H33.3932L33.3195 43.5171L33.4669 47.1141ZM33.4669 50.9974L33.3195 54.5944L33.3932 54.5974H33.4669V50.9974ZM39.039 50.9974H42.639V47.3974H39.039V50.9974ZM39.039 52.0702L42.6371 52.1867L42.639 52.1285V52.0702H39.039ZM42.9591 52.0702H39.3591V52.1285L39.361 52.1867L42.9591 52.0702ZM42.9591 50.9974V47.3974H39.3591V50.9974H42.9591ZM45.7948 50.9974L45.8502 47.3979L45.8225 47.3974H45.7948V50.9974ZM52 45.2761L55.5993 45.3461L55.6007 45.2761L55.5993 45.206L52 45.2761ZM45.7948 47.1069L46.0241 43.5142L45.9096 43.5069H45.7948V47.1069ZM48.0836 45.2761L51.6601 45.6865L51.6836 45.482V45.2761H48.0836ZM42.9591 47.1069H39.3591V50.7069H42.9591V47.1069ZM42.9591 43.4381V39.8381H39.3591V43.4381H42.9591ZM45.7948 43.4381V47.0381H45.9093L46.0235 47.0308L45.7948 43.4381ZM48.0836 45.2725H51.6836V45.0699L51.6609 44.8686L48.0836 45.2725ZM36.2707 35.8859L36.0044 39.4761L36.1374 39.4859H36.2707V35.8859ZM39.039 35.8859H42.639V32.2859H39.039V35.8859ZM33.9164 37.7203L30.3468 37.2538L30.2858 37.7203L30.3468 38.1869L33.9164 37.7203ZM36.2707 39.5547V35.9547H36.1374L36.0044 35.9646L36.2707 39.5547ZM39.039 39.5547V43.1547H42.639V39.5547H39.039ZM42.9591 43.1547H45.7948V35.9547H42.9591V43.1547ZM39.3591 35.8859V39.5547H46.5591V35.8859H39.3591ZM48.535 32.2859H42.9591V39.4859H48.535V32.2859ZM46.8947 34.0086C46.8752 32.9196 47.74 32.3008 48.4647 32.2866L48.6053 39.4852C51.5337 39.428 54.1506 37.0727 54.0935 33.8799L46.8947 34.0086ZM48.4647 35.6019C47.74 35.5877 46.8752 34.9689 46.8947 33.8799L54.0935 34.0086C54.1506 30.8158 51.5337 28.4604 48.6053 28.4032L48.4647 35.6019ZM42.9591 35.6026H48.535V28.4026H42.9591V35.6026ZM39.3591 30.9298V32.0026H46.5591V30.9298H39.3591ZM40.2277 32.3957C39.7277 32.1136 39.3378 31.5295 39.361 30.8133L46.5572 31.0463C46.6246 28.9656 45.4974 27.1022 43.7663 26.1253L40.2277 32.3957ZM41.7704 32.3957C41.2878 32.6681 40.7103 32.6681 40.2277 32.3957L43.7663 26.1253C42.0526 25.1582 39.9455 25.1582 38.2318 26.1253L41.7704 32.3957ZM42.6371 30.8133C42.6603 31.5295 42.2704 32.1136 41.7704 32.3957L38.2318 26.1253C36.5007 27.1022 35.3735 28.9656 35.4409 31.0463L42.6371 30.8133ZM42.639 32.0026V30.9298H35.439V32.0026H42.639ZM36.2707 35.6026H39.039V28.4026H36.2707V35.6026ZM33.5988 37.8151C33.6266 36.719 34.6363 35.5705 36.1985 35.6018L36.343 28.4033C31.136 28.2988 26.537 32.2675 26.4012 37.6328L33.5988 37.8151ZM36.1985 39.846C34.6363 39.8773 33.6266 38.7288 33.5988 37.6328L26.4012 37.8151C26.537 43.1803 31.136 47.1491 36.343 47.0445L36.1985 39.846ZM39.039 39.8453H36.2707V47.0453H39.039V39.8453ZM42.639 47.1141V43.4453H35.439V47.1141H42.639ZM33.4669 50.7141H39.039V43.5141H33.4669V50.7141ZM35.1183 49.0558C35.1183 50.0921 34.3044 50.6828 33.6143 50.7111L33.3195 43.5171C30.4504 43.6347 27.9183 45.9376 27.9183 49.0558H35.1183ZM33.6143 47.4005C34.3044 47.4287 35.1183 48.0194 35.1183 49.0558H27.9183C27.9183 52.1739 30.4504 54.4769 33.3195 54.5944L33.6143 47.4005ZM39.039 47.3974H33.4669V54.5974H39.039V47.3974ZM42.639 52.0702V50.9974H35.439V52.0702H42.639ZM41.7704 50.6043C42.2704 50.8864 42.6603 51.4705 42.6371 52.1867L35.4409 51.9537C35.3735 54.0344 36.5007 55.8978 38.2318 56.8747L41.7704 50.6043ZM40.2277 50.6043C40.7103 50.3319 41.2878 50.3319 41.7704 50.6043L38.2318 56.8747C39.9455 57.8418 42.0526 57.8418 43.7663 56.8747L40.2277 50.6043ZM39.361 52.1867C39.3378 51.4705 39.7277 50.8864 40.2277 50.6043L43.7663 56.8747C45.4974 55.8978 46.6246 54.0344 46.5572 51.9537L39.361 52.1867ZM39.3591 50.9974V52.0702H46.5591V50.9974H39.3591ZM45.7948 47.3974H42.9591V54.5974H45.7948V47.3974ZM48.4007 45.206C48.3797 46.283 47.3933 47.4216 45.8502 47.3979L45.7394 54.597C50.9302 54.6769 55.4952 50.6969 55.5993 45.3461L48.4007 45.206ZM45.8502 43.1543C47.3933 43.1306 48.3797 44.2691 48.4007 45.3461L55.5993 45.206C55.4952 39.8552 50.9302 35.8753 45.7394 35.9552L45.8502 43.1543ZM45.5655 50.6996C48.4876 50.8861 51.2994 48.8299 51.6601 45.6865L44.5071 44.8657C44.616 43.9164 45.4092 43.475 46.0241 43.5142L45.5655 50.6996ZM42.9591 50.7069H45.7948V43.5069H42.9591V50.7069ZM39.3591 43.4381V47.1069H46.5591V43.4381H39.3591ZM45.7948 39.8381H42.9591V47.0381H45.7948V39.8381ZM51.6609 44.8686C51.3054 41.7207 48.4914 39.6592 45.5662 39.8454L46.0235 47.0308C45.4079 47.07 44.6137 46.6273 44.5063 45.6764L51.6609 44.8686ZM51.6836 45.2761V45.2725H44.4836V45.2761H51.6836ZM36.2707 39.4859H39.039V32.2859H36.2707V39.4859ZM37.486 38.1869C37.3659 39.1064 36.594 39.5198 36.0044 39.4761L36.5371 32.2958C33.6033 32.0781 30.758 34.1071 30.3468 37.2538L37.486 38.1869ZM36.0044 35.9646C36.594 35.9209 37.3659 36.3343 37.486 37.2538L30.3468 38.1869C30.758 41.3336 33.6033 43.3625 36.5371 43.1449L36.0044 35.9646ZM39.039 35.9547H36.2707V43.1547H39.039V35.9547ZM35.439 35.8859V39.5547H42.639V35.8859H35.439Z" fill="#97A1FF" mask="url(#path-2-outside-1)"/>
</svg>
