<?xml version="1.0" encoding="UTF-8"?>
<svg width="26px" height="33px" viewBox="0 0 26 33" version="1.1" xmlns="http://www.w3.org/2000/svg" xmlns:xlink="http://www.w3.org/1999/xlink">
    <!-- Generator: Sketch 61.2 (89653) - https://sketch.com -->
    <title>Loading</title>
    <desc>Created with Sketch.</desc>
    <g id="Page-1" stroke="none" stroke-width="1" fill="none" fill-rule="evenodd">
        <g id="Group-30-Copy-2" transform="translate(-1444.000000, -213.000000)" fill-rule="nonzero" stroke="#97A1FF" stroke-width="3.59999996">
            <path d="M1460.91185,229.5 L1466.8641,236.910591 C1467.86782,238.160744 1468.08199,239.885346 1467.4203,241.350238 C1466.74835,242.837855 1465.28827,243.800565 1463.67065,243.8 L1450.32997,243.8 C1448.71173,243.800565 1447.25165,242.837855 1446.5797,241.350238 C1445.91801,239.885346 1446.13218,238.160744 1447.13613,236.910305 L1453.08815,229.5 L1447.1359,222.089409 C1446.13218,220.839256 1445.91801,219.114654 1446.5797,217.649762 C1447.25165,216.162145 1448.71173,215.199435 1450.32935,215.2 L1463.67003,215.2 C1465.28827,215.199435 1466.74835,216.162145 1467.4203,217.649762 C1468.08199,219.114654 1467.86782,220.839256 1466.86387,222.089695 L1460.91185,229.5 Z" id="Loading"></path>
        </g>
    </g>
</svg>