<?xml version="1.0" encoding="UTF-8"?>
<svg width="33px" height="33px" viewBox="0 0 33 33" version="1.1" xmlns="http://www.w3.org/2000/svg" xmlns:xlink="http://www.w3.org/1999/xlink">
    <!-- Generator: Sketch 61.2 (89653) - https://sketch.com -->
    <title>notification</title>
    <desc>Created with Sketch.</desc>
    <g id="Page-1" stroke="none" stroke-width="1" fill="none" fill-rule="evenodd">
        <g id="Group-30-Copy-2" transform="translate(-1788.000000, -212.000000)" fill-rule="nonzero" stroke="#97A1FF" stroke-width="3.59999996">
            <g id="Group-27" transform="translate(1740.000000, 164.000000)">
                <g id="notification" transform="translate(52.000000, 52.000000)">
                    <path d="M12.5999545,26.5773503 C9.53436582,26.7039068 6.82749497,24.5702431 6.24276546,21.5476801 L5.82840834,19.4058 L19.3741312,19.4058 L18.9589207,21.5482682 C18.373142,24.5708605 15.66577,26.7040782 12.5999545,26.5773503 Z M12.5719968,2.22256655 C12.6449723,2.22297415 12.7181865,2.22451233 12.791622,2.2271977 L12.8574,0.4284 L12.8969181,-1.37116613 L12.6361708,-1.37689208 L12.5571347,2.22224018 L12.5719968,2.22256655 Z M26.1785436,15.5362531 C26.9884376,16.3902947 27.2234141,17.6435744 26.7715447,18.7359952 C26.3090423,19.8541221 25.2182505,20.583 24.0084,20.583 L1.19912149,20.5829971 C-0.00859222758,20.5807973 -1.09653182,19.8526355 -1.55900226,18.736975 C-2.010009,17.6489694 -1.77989473,16.4005687 -0.978037261,15.5454441 L1.70869315,12.3668271 L1.81072815,12.2558875 C1.91919858,12.1474376 1.980096,12.0003081 1.98000002,11.8458 L1.98221819,8.66586645 C2.26919972,2.89054243 7.14459046,-1.58170773 12.923178,-1.3703977 L12.8178819,2.22796613 L12.5571347,2.22224018 L12.6361708,-1.37689208 L12.942782,-1.36957382 C18.552978,-1.10315738 23.012438,3.43731518 23.1786,9.1044 L23.1785996,11.8469223 C23.178504,12.0003081 23.2394014,12.1474376 23.3478719,12.2558875 L23.4393304,12.3544286 L26.1785436,15.5362531 Z" id="Combined-Shape"></path>
                </g>
            </g>
        </g>
    </g>
</svg>