<svg width="81" height="82" viewBox="0 0 81 82" fill="none" xmlns="http://www.w3.org/2000/svg">
    <ellipse cx="40.5" cy="41" rx="40.5" ry="41" fill="black"/>
    <path d="M50.8641 33.0894L50.8639 33.0897L44.9118 40.5L50.8639 47.9103L50.8641 47.9106C51.8712 49.165 52.0797 50.8903 51.4203 52.3502C50.7573 53.8181 49.3095 54.8003 47.6707 54.8L50.8641 33.0894ZM50.8641 33.0894C51.8712 31.835 52.0797 30.1097 51.4203 28.6498C50.7573 27.1819 49.3095 26.1997 47.6707 26.2C47.6706 26.2 47.6705 26.2 47.6704 26.2C47.6703 26.2 47.6702 26.2 47.67 26.2H34.33C34.3298 26.2 34.3297 26.2 34.3296 26.2C34.3295 26.2 34.3294 26.2 34.3293 26.2C32.6905 26.1997 31.2427 27.1819 30.5797 28.6498C29.9203 30.1097 30.1288 31.835 31.1359 33.0894L31.1361 33.0897M50.8641 33.0894L31.1361 33.0897M31.1361 33.0897L37.0882 40.5L31.1361 47.9103L31.1359 47.9106M31.1361 33.0897L31.1359 47.9106M31.1359 47.9106C30.1288 49.165 29.9203 50.8903 30.5797 52.3502M31.1359 47.9106L30.5797 52.3502M30.5797 52.3502C31.2427 53.8181 32.6905 54.8003 34.3293 54.8M30.5797 52.3502L34.3293 54.8M34.3293 54.8C34.3296 54.8 34.3298 54.8 34.33 54.8M34.3293 54.8H34.33M34.33 54.8H47.67H34.33Z" stroke="#97A1FF" stroke-width="3.6"/>
</svg>
