<svg width="81" height="82" viewBox="0 0 81 82" fill="none" xmlns="http://www.w3.org/2000/svg">
    <ellipse cx="40.5" cy="41" rx="40.5" ry="41" fill="black"/>
    <mask id="path-2-outside-1" maskUnits="userSpaceOnUse" x="26" y="24" width="30" height="33" fill="black">
        <rect fill="white" x="26" y="24" width="30" height="33"/>
        <path fill-rule="evenodd" clip-rule="evenodd" d="M31.5429 28H50.0571C50.9092 28 51.6 28.7052 51.6 29.575V51.625C51.6 52.4948 50.9092 53.2 50.0571 53.2H31.5429C30.6908 53.2 30 52.4948 30 51.625V29.575C30 28.7052 30.6908 28 31.5429 28ZM37.7143 42.175H43.8857C44.7378 42.175 45.4286 41.4698 45.4286 40.6C45.4286 39.7302 44.7378 39.025 43.8857 39.025H37.7143C36.8622 39.025 36.1714 39.7302 36.1714 40.6C36.1714 41.4698 36.8622 42.175 37.7143 42.175ZM43.8857 35.875H37.7143C36.8622 35.875 36.1714 35.1698 36.1714 34.3C36.1714 33.4302 36.8622 32.725 37.7143 32.725H43.8857C44.7378 32.725 45.4286 33.4302 45.4286 34.3C45.4286 35.1698 44.7378 35.875 43.8857 35.875ZM37.7143 48.475H43.8857C44.7378 48.475 45.4286 47.7698 45.4286 46.9C45.4286 46.0302 44.7378 45.325 43.8857 45.325H37.7143C36.8622 45.325 36.1714 46.0302 36.1714 46.9C36.1714 47.7698 36.8622 48.475 37.7143 48.475Z"/>
    </mask>
    <path d="M50.0571 24.4H31.5429V31.6H50.0571V24.4ZM55.2 29.575C55.2 26.7873 52.9671 24.4 50.0571 24.4V31.6C48.8514 31.6 48 30.623 48 29.575H55.2ZM55.2 51.625V29.575H48V51.625H55.2ZM50.0571 56.8C52.9671 56.8 55.2 54.4127 55.2 51.625H48C48 50.577 48.8514 49.6 50.0571 49.6V56.8ZM31.5429 56.8H50.0571V49.6H31.5429V56.8ZM26.4 51.625C26.4 54.4127 28.6329 56.8 31.5429 56.8V49.6C32.7486 49.6 33.6 50.577 33.6 51.625H26.4ZM26.4 29.575V51.625H33.6V29.575H26.4ZM31.5429 24.4C28.6329 24.4 26.4 26.7873 26.4 29.575H33.6C33.6 30.623 32.7486 31.6 31.5429 31.6V24.4ZM43.8857 38.575H37.7143V45.775H43.8857V38.575ZM41.8286 40.6C41.8286 39.552 42.68 38.575 43.8857 38.575V45.775C46.7957 45.775 49.0286 43.3877 49.0286 40.6H41.8286ZM43.8857 42.625C42.68 42.625 41.8286 41.648 41.8286 40.6H49.0286C49.0286 37.8123 46.7957 35.425 43.8857 35.425V42.625ZM37.7143 42.625H43.8857V35.425H37.7143V42.625ZM39.7714 40.6C39.7714 41.648 38.92 42.625 37.7143 42.625V35.425C34.8043 35.425 32.5714 37.8123 32.5714 40.6H39.7714ZM37.7143 38.575C38.92 38.575 39.7714 39.552 39.7714 40.6H32.5714C32.5714 43.3877 34.8043 45.775 37.7143 45.775V38.575ZM37.7143 39.475H43.8857V32.275H37.7143V39.475ZM32.5714 34.3C32.5714 37.0877 34.8043 39.475 37.7143 39.475V32.275C38.92 32.275 39.7714 33.252 39.7714 34.3H32.5714ZM37.7143 29.125C34.8043 29.125 32.5714 31.5123 32.5714 34.3H39.7714C39.7714 35.348 38.92 36.325 37.7143 36.325V29.125ZM43.8857 29.125H37.7143V36.325H43.8857V29.125ZM49.0286 34.3C49.0286 31.5123 46.7957 29.125 43.8857 29.125V36.325C42.68 36.325 41.8286 35.348 41.8286 34.3H49.0286ZM43.8857 39.475C46.7957 39.475 49.0286 37.0877 49.0286 34.3H41.8286C41.8286 33.252 42.68 32.275 43.8857 32.275V39.475ZM43.8857 44.875H37.7143V52.075H43.8857V44.875ZM41.8286 46.9C41.8286 45.852 42.68 44.875 43.8857 44.875V52.075C46.7957 52.075 49.0286 49.6877 49.0286 46.9H41.8286ZM43.8857 48.925C42.68 48.925 41.8286 47.948 41.8286 46.9H49.0286C49.0286 44.1123 46.7957 41.725 43.8857 41.725V48.925ZM37.7143 48.925H43.8857V41.725H37.7143V48.925ZM39.7714 46.9C39.7714 47.948 38.92 48.925 37.7143 48.925V41.725C34.8043 41.725 32.5714 44.1123 32.5714 46.9H39.7714ZM37.7143 44.875C38.92 44.875 39.7714 45.852 39.7714 46.9H32.5714C32.5714 49.6877 34.8043 52.075 37.7143 52.075V44.875Z" fill="#97A1FF" mask="url(#path-2-outside-1)"/>
</svg>
