<svg width="81" height="82" viewBox="0 0 81 82" fill="none" xmlns="http://www.w3.org/2000/svg">
    <ellipse cx="40.5" cy="41" rx="40.5" ry="41" fill="black"/>
    <mask id="path-2-outside-1" maskUnits="userSpaceOnUse" x="33" y="24" width="15" height="33" fill="black">
        <rect fill="white" x="33" y="24" width="15" height="33"/>
        <path fill-rule="evenodd" clip-rule="evenodd" d="M42.6073 43.0844C42.4974 43.9283 41.9843 44.3502 41.1414 44.3502H39.8953C39.0157 44.3502 38.5026 43.9283 38.3927 43.0844L37.1099 30.1449V29.3361C37.1099 28.4923 37.623 28 38.5026 28H42.4974C43.4136 28 43.8901 28.4923 43.8901 29.3361V30.1449L42.6073 43.0844ZM44 49.9409C44 51.699 42.4607 53 40.4817 53C38.466 53 37 51.699 37 49.9409C37 48.1828 38.466 46.8115 40.4817 46.8115C42.4607 46.8115 44 48.1828 44 49.9409Z"/>
    </mask>
    <path d="M42.6073 43.0844L46.1772 43.5495L46.1843 43.4946L46.1898 43.4395L42.6073 43.0844ZM38.3927 43.0844L34.8102 43.4395L34.8157 43.4946L34.8228 43.5495L38.3927 43.0844ZM37.1099 30.1449H33.5099V30.3229L33.5275 30.5L37.1099 30.1449ZM43.8901 30.1449L47.4725 30.5L47.4901 30.3229V30.1449H43.8901ZM41.1414 47.9502C42.1492 47.9502 43.4068 47.6926 44.4852 46.7729C45.5792 45.84 46.039 44.6101 46.1772 43.5495L39.0375 42.6193C39.0657 42.4026 39.214 41.8056 39.8132 41.2946C40.3969 40.7968 40.9765 40.7502 41.1414 40.7502V47.9502ZM39.8953 47.9502H41.1414V40.7502H39.8953V47.9502ZM34.8228 43.5495C34.9613 44.6118 35.4246 45.8564 36.5442 46.794C37.6379 47.7097 38.9033 47.9502 39.8953 47.9502V40.7502C40.0077 40.7502 40.5768 40.7798 41.1665 41.2736C41.7822 41.7891 41.934 42.4008 41.9625 42.6193L34.8228 43.5495ZM33.5275 30.5L34.8102 43.4395L41.9751 42.7293L40.6924 29.7897L33.5275 30.5ZM33.5099 29.3361V30.1449H40.7099V29.3361H33.5099ZM38.5026 24.4C37.4072 24.4 36.067 24.715 34.9841 25.7539C33.8809 26.8123 33.5099 28.1754 33.5099 29.3361H40.7099C40.7099 29.653 40.5955 30.348 39.9688 30.9494C39.3624 31.5312 38.7184 31.6 38.5026 31.6V24.4ZM42.4974 24.4H38.5026V31.6H42.4974V24.4ZM47.4901 29.3361C47.4901 28.248 47.1705 26.8696 46.0547 25.7782C44.9498 24.6973 43.5765 24.4 42.4974 24.4V31.6C42.3345 31.6 41.6575 31.5488 41.0199 30.9251C40.3714 30.2907 40.2901 29.5804 40.2901 29.3361H47.4901ZM47.4901 30.1449V29.3361H40.2901V30.1449H47.4901ZM46.1898 43.4395L47.4725 30.5L40.3076 29.7897L39.0249 42.7293L46.1898 43.4395ZM40.4817 56.6C43.929 56.6 47.6 54.1701 47.6 49.9409H40.4C40.4 49.8456 40.423 49.7294 40.4763 49.617C40.5277 49.5087 40.5901 49.4395 40.6324 49.4031C40.7139 49.3328 40.6912 49.4 40.4817 49.4V56.6ZM33.4 49.9409C33.4 54.1014 36.9189 56.6 40.4817 56.6V49.4C40.2448 49.4 40.2511 49.3283 40.3651 49.4288C40.4206 49.4777 40.4852 49.5558 40.5341 49.6627C40.5841 49.7718 40.6 49.8727 40.6 49.9409H33.4ZM40.4817 43.2115C36.8061 43.2115 33.4 45.8814 33.4 49.9409H40.6C40.6 50.008 40.5847 50.096 40.544 50.1863C40.5044 50.2746 40.4525 50.339 40.4074 50.38C40.3106 50.4681 40.2961 50.4115 40.4817 50.4115V43.2115ZM47.6 49.9409C47.6 45.8113 44.0426 43.2115 40.4817 43.2115V50.4115C40.6404 50.4115 40.6543 50.4637 40.5898 50.4063C40.5574 50.3775 40.5078 50.3215 40.4658 50.2317C40.4222 50.1381 40.4 50.0348 40.4 49.9409H47.6Z" fill="#97A1FF" mask="url(#path-2-outside-1)"/>
</svg>